<?xml version="1.0" encoding="UTF-8" standalone="no"?>
<svg width="230px" height="205px" viewBox="0 0 230 205" version="1.1" xmlns="http://www.w3.org/2000/svg" xmlns:xlink="http://www.w3.org/1999/xlink">
    <!-- Generator: Sketch 3.6.1 (26313) - http://www.bohemiancoding.com/sketch -->
    <title>noun_269598_cc</title>
    <desc>Created with Sketch.</desc>
    <defs></defs>
    <g id="Page-1" stroke="none" stroke-width="1" fill="none" fill-rule="evenodd">
        <g id="Sidebar" transform="translate(-500.000000, -60.000000)">
            <g id="noun_269598_cc" transform="translate(500.000000, 60.000000)">
                <g id="Group" transform="translate(45.000000, 42.000000)" fill="#2C3B48">
                    <path d="M2.68380181,45.7145796 L1.44527473,46.1475 C0.472725275,46.4865 -0.0406483516,47.5455 0.296582418,48.513 L2.31695604,54.33 C2.49912088,54.858 2.90861538,55.275 3.43252747,55.4685 L22.0946374,62.373 C22.3039011,62.451 22.5252088,62.4885 22.745011,62.4885 C22.9572857,62.487 23.1695604,62.451 23.3712967,62.3805 L28.8211868,60.4455 C29.2909011,60.2805 29.6732967,59.934 29.8855714,59.4855 C30.0993516,59.037 30.1219341,58.524 29.9518132,58.056 L29.3172297,56.3089607 L31.549439,55.5237977 C31.9084649,59.3076649 35.1158399,62.2785 39.0058571,62.2785 C43.1339231,62.2785 46.4926813,58.9305 46.4926813,54.816 C46.4926813,54.5798603 46.4816181,54.3462454 46.4599811,54.1156432 L51.0935237,52.4224122 L53.554956,59.6565 C53.8184176,60.4335 54.5455714,60.921 55.3254176,60.921 C55.5211319,60.9225 55.7213626,60.891 55.9170769,60.8265 L63.6779011,58.251 C63.7078649,58.24108 63.7375003,58.2304281 63.7667846,58.2190634 L68.0165297,56.7488794 L69.3155227,60.3141076 C68.4525322,62.2418567 68.4687386,64.0831709 68.4849451,64.503 L68.4849451,69.3465 L60.9936044,69.3465 C59.9608352,69.3465 59.1237802,70.1805 59.1237802,71.208 L59.1237802,72.0165 L48.5567143,72.0165 L48.5521978,72.0165 C48.3022857,72.0165 43.8866703,72.0645 40.7868571,75.237 L37.4038408,78.6308835 C36.4932443,78.1488326 35.4550311,77.8755 34.3538791,77.8755 C30.7572527,77.8755 27.8335824,80.7915 27.8335824,84.372 C27.8335824,87.954 30.7572527,90.87 34.3538791,90.87 C37.9505055,90.87 40.8756813,87.954 40.8756813,84.372 C40.8756813,83.2396248 40.5831009,82.1737139 40.069232,81.2454889 L43.4545934,77.847 C45.4644286,75.7905 48.5266044,75.7425 48.5506923,75.7425 L59.1237802,75.7425 L59.1237802,76.5495 C59.1237802,77.2506537 59.5124222,77.8598766 60.0868059,78.1769074 L42.9291758,140.862 C42.7756154,141.4215 42.893044,142.02 43.2468352,142.482 C43.6006264,142.9425 44.1501319,143.214 44.7327582,143.214 L51.0151868,143.214 C51.8552527,143.2155 52.5929451,142.656 52.8172637,141.8505 L63.1704685,104.7975 L73.164022,104.7975 L73.164022,141.3495 C73.164022,142.38 74.0010769,143.214 75.0338462,143.214 L80.9474286,143.214 C81.9801978,143.2155 82.8172527,142.38 82.8172527,141.3495 L82.8172527,104.7975 L93.1565198,104.7975 L103.724055,141.8595 C103.951385,142.6605 104.687571,143.214 105.521615,143.214 L111.250022,143.214 C111.837165,143.2155 112.389681,142.9395 112.743473,142.476 C113.097264,142.008 113.211681,141.402 113.050593,140.8425 L95.2494048,78.4095 L95.5462088,78.4095 C96.5774725,78.4095 97.416033,77.5785 97.416033,76.5495 L97.416033,71.208 C97.416033,70.179 96.578978,69.3465 95.5462088,69.3465 L87.6845165,69.3465 L87.6845165,64.2615 C87.7055934,61.836 86.9408022,59.8245 85.4097143,58.2855 C84.714949,57.5869875 83.9238537,57.0584863 83.1234403,56.6586235 L81.4616275,52.0975964 L85.4570148,50.7154066 C85.4648386,50.7128305 85.472658,50.7101952 85.4804725,50.7075 L93.2397912,48.132 C93.7155275,47.973 94.1084615,47.631 94.3297692,47.1825 C94.5495714,46.7325 94.5796813,46.2135 94.4125714,45.7425 L91.8453851,38.5013771 L97.3620778,36.6190188 L97.4732418,36.9375 C97.7412198,37.7055 98.4653626,38.1885 99.2406923,38.1885 C99.4379121,38.187 99.6381429,38.1555 99.8353626,38.0895 L104.53181,36.5149208 C104.704748,36.937404 105.029124,37.2826925 105.44333,37.4835 C105.700769,37.608 105.980791,37.6725 106.262319,37.6725 C106.471582,37.674 106.679341,37.6395 106.881077,37.5675 L132.748484,28.539 C133.716516,28.2 134.22989,27.1485 133.901692,26.1825 L133.371773,24.6260884 C133.553154,24.4733672 133.708351,24.2833773 133.824912,24.06 C136.20811,19.47 136.683846,15.2445 135.237066,11.502 C132.984846,5.6745 126.87856,3.3435 126.61811,3.246 C126.431874,3.17692234 126.241558,3.13931032 126.053053,3.13049195 L125.648571,1.9425 C125.488989,1.4745 125.148747,1.0875 124.703121,0.87 C124.257495,0.651 123.744121,0.6195 123.272901,0.7785 L97.3407582,9.615 C96.3938174,9.9387305 95.8737305,10.9457699 96.1498222,11.8946513 L91.2992088,13.578 C90.3251538,13.9155 89.8087692,14.9775 90.1475055,15.9495 L90.2900244,16.3578122 L84.6743887,18.2745378 L84.1872527,16.9005 C83.847011,15.9435 82.8006923,15.432 81.8341648,15.753 L74.4436923,18.2085 C73.970967,18.366 73.581044,18.7035 73.3597363,19.1475 C73.1384286,19.5915 73.1038022,20.106 73.2633846,20.574 L73.7174374,21.9085188 L55.0482072,28.2123702 L54.6253626,27.0195 C54.2851209,26.061 53.2388022,25.5525 52.2722747,25.872 L44.8802967,28.3275 C44.4090769,28.4835 44.0176484,28.821 43.7963407,29.265 C43.575033,29.7105 43.5404066,30.2235 43.699989,30.693 L44.1672915,32.0663903 L41.4137134,32.9950171 L35.0362044,28.0793318 L44.1516374,24.9855 C45.1287033,24.654 45.6511099,23.595 45.3183956,22.6215 L43.1836044,16.3725 C43.024022,15.9045 42.6837802,15.519 42.2396593,15.3015 C41.7955385,15.0825 41.2806593,15.051 40.8109451,15.21 L21.3283407,21.822 C20.8586264,21.981 20.4717143,22.32 20.2534176,22.764 C20.0351209,23.208 20.002,23.718 20.1615824,24.186 L22.2993846,30.435 C22.5643516,31.209 23.2915055,31.6965 24.0698462,31.6965 C24.2670659,31.6965 24.4703077,31.6665 24.6705385,31.5975 L30.7935645,29.5193088 L37.1629922,34.428546 L32.6767582,35.9415 C31.7027033,36.27 31.1772857,37.32 31.5024725,38.2935 L31.8863056,39.4444529 L24.1437665,42.0661643 L23.5323846,40.383 C23.1831099,39.42 22.1202308,38.919 21.1552088,39.258 L13.1570643,42.0537078 L10.6498681,34.9695 C10.4827582,34.497 10.128967,34.11 9.67430769,33.8985 C9.21814286,33.6885 8.69573626,33.669 8.22451648,33.8475 L1.40010989,36.423 C0.45767033,36.78 -0.0331208791,37.818 0.295076923,38.7675 L2.68380181,45.7145796 Z M6.21235044,44.4811947 L9.62931991,43.2868116 L7.76082418,38.0055 L4.41862637,39.2685 L6.21235044,44.4811947 Z M5.65419441,48.6241645 L4.4397033,49.0485 L5.5612967,52.281 L22.7570549,58.641 L25.7966484,57.564 L20.6463516,43.386 L12.678277,46.1699947 C12.6646519,46.1751404 12.6509329,46.180143 12.6371209,46.185 C12.6200128,46.1910425 12.6028754,46.1968204 12.5857131,46.2023359 L5.68922605,48.6119247 C5.67925075,48.6155262 5.66922654,48.6190516 5.65915385,48.6225 C5.65750101,48.6230572 5.65584786,48.623612 5.65419441,48.6241645 Z M28.04413,52.8040551 L32.319956,51.3015 C32.9507582,49.866 33.9127692,48.9435 34.8657473,48.3855 L33.0651758,42.981 L25.469956,45.5535 L27.1573331,50.36266 L28.04413,52.8040551 Z M45.1896344,50.61353 L49.8932008,48.8946936 L45.3680889,35.5955037 L35.6380659,38.877 L35.9945308,39.9458423 C36.004762,39.9722846 36.0144139,39.9990093 36.0234725,40.026 L38.4724822,47.372226 C38.648682,47.3598125 38.8265443,47.3535 39.0058571,47.3535 C41.5715075,47.3535 43.8399901,48.6467639 45.1896344,50.61353 Z M96.1335016,33.0991874 L91.5186889,19.8778966 L85.9200845,21.7882041 L90.5995869,34.987422 L96.1335016,33.0991874 Z M100.341126,33.8048503 L100.398418,33.969 L103.327199,32.9864373 L97.3489255,15.4233045 L94.2951429,16.482 L100.228345,33.481711 C100.252816,33.5355332 100.274936,33.59099 100.294538,33.648 C100.312499,33.7000801 100.328008,33.7524048 100.341126,33.8048503 Z M87.8438933,38.4027593 L90.2513846,45.195 L86.0615934,46.587 L83.6203714,39.4127571 C83.6114921,39.3811035 83.6017318,39.3495087 83.5910769,39.318 C83.5796398,39.2841782 83.5673223,39.250896 83.5541583,39.2181706 L77.8853715,22.5587874 C77.8774538,22.5316397 77.868886,22.5045381 77.8596593,22.4775 C77.8506233,22.4509409 77.841046,22.4247167 77.8309438,22.3988357 L77.4065055,21.1515 L81.2741209,19.8675 L81.7137113,21.1077138 C81.7255055,21.152436 81.7390469,21.1970571 81.7543736,21.2415 C81.773514,21.297303 81.7950583,21.351611 81.8188528,21.4043488 L87.5361281,37.5344632 C87.5495217,37.6800931 87.5804819,37.8264886 87.6303187,37.971 C87.6838095,38.127253 87.7561364,38.2717075 87.8438933,38.4027593 Z M127.729531,8.05442595 C129.169671,9.0375298 130.880379,10.600366 131.74733,12.8415 C132.520587,14.8441888 132.493145,17.1163637 131.668055,19.6221491 L127.729531,8.05442595 Z M60.9799007,44.946039 L56.2935786,31.7256388 L74.918321,25.4380682 L79.4456271,38.7443961 L60.9799007,44.946039 Z M62.2250804,48.4587668 L64.2295582,54.1135211 L82.52185,47.7858058 L80.6457875,42.2718198 L62.2250804,48.4587668 Z M52.122861,31.14644 L51.7122308,29.988 L47.8461209,31.2705 L56.4997033,56.706 L60.6894945,55.314 L52.1531323,31.2318393 C52.1447952,31.2099677 52.1368321,31.187853 52.1292527,31.1655 C52.1270859,31.1591501 52.1249553,31.1527967 52.122861,31.14644 Z M77.9282466,53.3199567 L78.7056373,55.4530347 C78.3020212,55.4177562 78.0469386,55.416 78.0071978,55.416 C75.6281872,55.3894449 73.6416302,55.9218726 72.0811671,56.9845538 L71.5496832,55.5265977 L77.9282466,53.3199567 Z M30.5926087,25.6521861 L41.1752747,22.0605 L40.2448791,19.338 L24.3031978,24.75 L25.2335934,27.471 L30.4827041,25.689487 C30.5189879,25.6759072 30.5556424,25.6634712 30.5926087,25.6521861 Z M92.0941207,101.0715 L85.6324758,78.4095 L82.8172527,78.4095 L82.8172527,101.0715 L92.0941207,101.0715 Z M64.2115729,101.0715 L70.5437005,78.4095 L73.164022,78.4095 L73.164022,101.0715 L64.2115729,101.0715 Z M80.6369689,59.6387589 C79.280803,59.1620294 78.0130985,59.142 77.9936484,59.142 C75.9416593,59.1555 74.4662747,59.6295 73.5178132,60.6345 C73.4120163,60.7464636 73.3147946,60.8624353 73.2254569,60.9811844 C73.1438174,61.3440425 72.9543696,61.6777618 72.6795437,61.9346656 C72.1631706,63.1456583 72.2204829,64.3192582 72.2215824,64.3335 C72.2245934,64.374 72.2245934,64.4175 72.2245934,64.4595 L72.2245934,69.3465 L83.9463736,69.3465 L83.9463736,64.245 C83.9584176,62.811 83.57,61.725 82.7555275,60.906 C82.3229201,60.4719361 81.8064112,60.1445979 81.2756395,59.8977658 C81.0483312,59.851411 80.8315614,59.7633037 80.6369689,59.6387589 Z M63.8992088,78.4095 L66.6617912,78.4095 L49.5955055,139.488 L47.1806923,139.488 L63.8992088,78.4095 Z M76.9051758,78.4095 L79.0791099,78.4095 L79.0791099,139.488 L76.9051758,139.488 L76.9051758,78.4095 Z M89.5212198,78.4095 L91.3624396,78.4095 L108.776495,139.488 L106.935275,139.488 L89.5212198,78.4095 Z M62.8634286,73.0725 L93.6748791,73.0725 L93.6748791,74.6865 L62.8634286,74.6865 L62.8634286,73.0725 Z M37.136033,84.372 C37.136033,85.9005 35.887978,87.144 34.3553846,87.144 C32.8227912,87.144 31.5747363,85.9005 31.5747363,84.372 C31.5747363,82.845 32.8227912,81.6015 34.3553846,81.6015 C35.887978,81.6015 37.136033,82.845 37.136033,84.372 Z M78.2691538,62.8635 C77.1806813,62.8635 76.2984615,63.744 76.2984615,64.8285 C76.2984615,65.9145 77.1806813,66.792 78.2691538,66.792 C79.3576264,66.792 80.2413516,65.9145 80.2413516,64.8285 C80.2398462,63.744 79.3576264,62.8635 78.2691538,62.8635 Z M122.708341,4.908 L129.764593,25.632 L107.427571,33.429 L100.317121,12.54 L122.708341,4.908 Z M42.7515275,54.816 C42.7515275,56.8755 41.0713956,58.5525 39.0043516,58.5525 C36.9373077,58.5525 35.2556703,56.8755 35.2556703,54.816 C35.2556703,52.7565 36.9373077,51.081 39.0043516,51.081 C41.0713956,51.081 42.7515275,52.7565 42.7515275,54.816 Z" id="Shape"></path>
                </g>
                <rect id="Rectangle-13-Copy-2" fill-opacity="0" fill="#FFFFFF" x="0" y="0" width="230" height="205"></rect>
            </g>
        </g>
    </g>
</svg>