<?xml version="1.0" encoding="UTF-8" standalone="no"?>
<svg width="230px" height="205px" viewBox="0 0 230 205" version="1.1" xmlns="http://www.w3.org/2000/svg" xmlns:xlink="http://www.w3.org/1999/xlink">
    <!-- Generator: Sketch 3.6.1 (26313) - http://www.bohemiancoding.com/sketch -->
    <title>noun_317934_cc</title>
    <desc>Created with Sketch.</desc>
    <defs></defs>
    <g id="Page-1" stroke="none" stroke-width="1" fill="none" fill-rule="evenodd">
        <g id="Sidebar" transform="translate(-270.000000, -60.000000)">
            <g id="noun_317934_cc" transform="translate(270.000000, 60.000000)">
                <g id="Group" transform="translate(33.000000, 18.000000)" fill="#2C3B48">
                    <g id="Shape">
                        <path d="M98.084,35.8026806 C100.938,35.8026806 101.126,38.330417 101.134,38.8435217 C101.138,39.6072123 101.762,40.2296997 102.536,40.2296997 C103.31,40.2296997 103.936,39.6072123 103.936,38.8355666 C103.936,35.9936033 106.484,35.8106357 106.982,35.8046694 C107.76,35.8046694 108.386,35.1801932 108.386,34.412525 C108.386,33.6428681 107.76,33.0183919 106.982,33.0183919 C104.128,33.0183919 103.942,30.4846891 103.936,29.9874947 C103.936,29.2178377 103.31,28.5933615 102.536,28.5933615 C101.76,28.5933615 101.134,29.2178377 101.134,29.9874947 C101.134,32.829458 98.582,33.0124255 98.084,33.0183919 C97.306,33.0183919 96.682,33.6428681 96.682,34.412525 C96.682,35.1782044 97.31,35.8026806 98.084,35.8026806 L98.084,35.8026806 Z"></path>
                        <path d="M164.718,60.8851447 C161.86,60.8851447 161.676,58.3514419 161.666,57.8542475 C161.666,57.0845905 161.042,56.4601143 160.266,56.4601143 C159.49,56.4601143 158.866,57.0845905 158.866,57.8542475 C158.866,60.6962108 156.316,60.8791783 155.818,60.8851447 C155.038,60.8851447 154.416,61.5076321 154.416,62.2812666 C154.416,63.0509236 155.044,63.6773885 155.818,63.6773885 C158.672,63.6773885 158.858,66.205125 158.866,66.714252 C158.87,67.4799315 159.494,68.1004301 160.266,68.1004301 C161.042,68.1004301 161.666,67.4779427 161.666,66.7043082 C161.666,63.8643336 164.22,63.6813661 164.718,63.6773885 C165.498,63.6773885 166.12,63.0529123 166.12,62.2812666 C166.122,61.5096209 165.49,60.8851447 164.718,60.8851447 L164.718,60.8851447 Z"></path>
                        <path d="M165.468,29.0686794 C165.974,29.0686794 166.384,28.66098 166.384,28.1558305 C166.384,26.2983121 168.052,26.1789854 168.376,26.1750079 C168.89,26.1750079 169.296,25.7673085 169.296,25.2621589 C169.296,24.7589982 168.884,24.3512988 168.376,24.3512988 C166.512,24.3512988 166.392,22.694647 166.384,22.3684874 C166.384,21.8673154 165.976,21.4576272 165.468,21.4576272 C164.96,21.4576272 164.552,21.8673154 164.552,22.3684874 C164.552,24.2279945 162.884,24.3453324 162.556,24.3512988 C162.048,24.3512988 161.64,24.7589982 161.64,25.2621589 C161.64,25.7673085 162.05,26.1750079 162.556,26.1750079 C164.426,26.1750079 164.546,27.8276821 164.552,28.1637856 C164.552,28.6649575 164.962,29.0686794 165.468,29.0686794 L165.468,29.0686794 Z"></path>
                        <path d="M56.564,39.1259281 C58.432,39.1259281 58.554,40.7786024 58.56,41.1147058 C58.562,41.6158778 58.972,42.0215884 59.476,42.0215884 C59.982,42.0215884 60.392,41.613889 60.392,41.1107282 C60.392,39.2532099 62.06,39.1338832 62.386,39.1279169 C62.898,39.1279169 63.304,38.7202175 63.304,38.2170567 C63.304,37.7119072 62.89,37.3042078 62.386,37.3042078 C60.52,37.3042078 60.4,35.647556 60.392,35.3213964 C60.392,34.8182357 59.984,34.4105362 59.476,34.4105362 C58.97,34.4105362 58.56,34.8202244 58.56,35.3213964 C58.56,37.1809035 56.892,37.2982414 56.564,37.3042078 C56.056,37.3042078 55.648,37.7119072 55.648,38.2170567 C55.648,38.7182287 56.058,39.1259281 56.564,39.1259281 L56.564,39.1259281 Z"></path>
                        <path d="M123.372,12.9715129 C127.16,12.9715129 130.234,16.0282642 130.234,19.7890428 C130.234,20.8212184 131.076,21.656505 132.112,21.656505 C133.152,21.656505 133.992,20.8212184 133.992,19.7890428 C133.992,16.0282642 137.066,12.9715129 140.844,12.9715129 C141.894,12.9715129 142.728,12.1322487 142.728,11.1020619 C142.728,10.071875 141.882,9.23261086 140.844,9.23261086 C137.066,9.23261086 133.992,6.17387079 133.992,2.41706976 C133.992,1.38489415 133.15,0.547618744 132.112,0.547618744 C131.074,0.547618744 130.234,1.38489415 130.234,2.41706976 C130.234,6.17387079 127.16,9.23261086 123.372,9.23261086 C122.33,9.23261086 121.492,10.0698863 121.492,11.1020619 C121.492,12.1342375 122.338,12.9715129 123.372,12.9715129 L123.372,12.9715129 Z M132.112,8.4092569 C132.842,9.45933151 133.764,10.376158 134.822,11.1020619 C133.764,11.8319433 132.842,12.746781 132.112,13.7968556 C131.38,12.7447922 130.458,11.8299545 129.404,11.1020619 C130.458,10.376158 131.378,9.45933151 132.112,8.4092569 L132.112,8.4092569 Z"></path>
                        <path d="M78.33,25.932377 C81.154,25.932377 83.446,28.2115162 83.446,31.0156928 C83.446,31.7853497 84.074,32.4098259 84.848,32.4098259 C85.622,32.4098259 86.25,31.7873385 86.25,31.0156928 C86.25,28.2115162 88.542,25.932377 91.362,25.932377 C92.144,25.932377 92.766,25.3079008 92.766,24.5382439 C92.766,23.7685869 92.136,23.1441107 91.362,23.1441107 C88.544,23.1441107 86.25,20.8649715 86.25,18.0627837 C86.25,17.2931268 85.622,16.6686506 84.848,16.6686506 C84.074,16.6686506 83.446,17.2931268 83.446,18.0627837 C83.446,20.8649715 81.154,23.1441107 78.33,23.1441107 C77.554,23.1441107 76.928,23.7685869 76.928,24.5382439 C76.928,25.3079008 77.56,25.932377 78.33,25.932377 L78.33,25.932377 Z M84.848,22.5295784 C85.394,23.3131568 86.08,23.9972963 86.87,24.5382439 C86.078,25.0811802 85.394,25.7653197 84.848,26.5488981 C84.302,25.7633309 83.616,25.0811802 82.828,24.5382439 C83.616,23.9972963 84.302,23.3131568 84.848,22.5295784 L84.848,22.5295784 Z"></path>
                        <path d="M157.842,37.3161404 C155.018,37.3161404 152.724,35.0370012 152.724,32.2348135 C152.724,31.4631677 152.098,30.8386915 151.326,30.8386915 C150.548,30.8386915 149.924,31.4631677 149.924,32.2348135 C149.924,35.03899 147.632,37.3161404 144.81,37.3161404 C144.03,37.3161404 143.406,37.9426054 143.406,38.7122624 C143.406,39.4839081 144.036,40.1063955 144.81,40.1063955 C147.63,40.1063955 149.924,42.3855347 149.924,45.1917 C149.924,45.961357 150.548,46.5838444 151.326,46.5838444 C152.098,46.5838444 152.724,45.961357 152.724,45.1917 C152.724,42.3855347 155.016,40.1063955 157.842,40.1063955 C158.624,40.1063955 159.248,39.4799305 159.248,38.7122624 C159.248,37.9406166 158.612,37.3161404 157.842,37.3161404 L157.842,37.3161404 Z M151.326,40.7229166 C150.782,39.9373494 150.092,39.2571874 149.304,38.7142511 C150.092,38.1733036 150.78,37.4891641 151.326,36.7055857 C151.87,37.4891641 152.556,38.1713148 153.346,38.7142511 C152.556,39.2571874 151.872,39.9393382 151.326,40.7229166 L151.326,40.7229166 Z"></path>
                        <path d="M122.818,38.419912 C120.682,38.419912 118.776,38.9688147 117.152,40.0546873 L108.736,45.6849169 C102.98,43.4018001 96.896,42.2343876 90.644,42.2343876 C90.604,42.2343876 90.572,42.2542754 90.532,42.2562642 C90.492,42.2542754 90.46,42.2343876 90.42,42.2343876 C90.38,42.2343876 90.342,42.2363764 90.302,42.2363764 C90.296,42.2363764 90.292,42.2343876 90.286,42.2343876 C90.25,42.2343876 90.214,42.240354 90.178,42.240354 C90.168,42.240354 90.158,42.2343876 90.148,42.2343876 C90.132,42.2343876 90.116,42.2423427 90.1,42.2423427 C90.052,42.2423427 90.002,42.2463203 89.954,42.2463203 C89.928,42.2463203 89.908,42.2343876 89.882,42.2343876 C89.854,42.2343876 89.832,42.2483091 89.804,42.2502978 C63.158,42.5804349 41.576,64.22828 41.576,90.804316 C41.576,93.3499515 41.774,95.8896206 42.166,98.381559 L21.742,98.381559 C21.682,98.381559 21.626,98.4094019 21.568,98.4153682 C21.446,98.4253121 21.332,98.4511662 21.214,98.4809979 C21.072,98.5187847 20.94,98.5625378 20.81,98.6261786 C20.7,98.6798756 20.602,98.7435165 20.504,98.8151125 C20.442,98.8608544 20.368,98.882731 20.31,98.936428 L1.5,115.996163 C0.632,116.783719 0.57,118.118189 1.362,118.983307 C1.78,119.438737 2.356,119.673413 2.934,119.673413 C3.444,119.673413 3.958,119.490445 4.366,119.120533 L6.508,117.175508 L6.508,147.180197 L3.146,147.180197 C1.972,147.180197 1.02,148.128844 1.02,149.294268 L1.02,163.832232 C1.02,164.999645 1.972,165.946303 3.146,165.946303 L142.966,165.946303 C144.14,165.946303 145.092,164.997656 145.092,163.832232 L145.092,149.294268 C145.092,148.126855 144.138,147.180197 142.966,147.180197 L138.818,147.180197 L138.818,102.611689 L143.046,102.611689 C144.22,102.611689 145.172,101.663042 145.172,100.497618 C145.172,99.3321947 144.22,98.381559 143.046,98.381559 L138.89,98.381559 C139.282,95.8816655 139.49,93.3439851 139.49,90.804316 C139.49,88.7837179 139.33,86.7651086 139.082,84.766387 L144.828,80.9877094 L144.83,80.9857207 C144.834,80.9837319 144.84,80.9817431 144.844,80.9777655 C151.706,76.3856779 151.002,63.8006928 143.24,52.3274343 C137.526,43.8791068 129.508,38.419912 122.818,38.419912 L122.818,38.419912 Z M135.078,82.3321231 L110.676,98.381559 L101.262,98.381559 C101.34,96.4285793 101.358,93.8471459 101.358,93.8093591 C101.358,93.4851884 100.658,73.1320376 97.718,58.0948896 C97.818,58.0491477 97.92,58.0173273 98.012,57.9556752 L112.59,48.2027094 C111.836,54.0059627 113.93,61.5692842 118.756,68.7050185 C123.418,75.5901668 129.606,80.4885262 135.356,82.0656269 C135.264,82.1551219 135.154,82.2267179 135.078,82.3321231 L135.078,82.3321231 Z M83.032,98.381559 C82.976,96.9019084 82.934,94.571061 82.934,93.8093591 C82.934,77.0479409 86.876,51.5935754 90.014,46.9716561 C93.282,51.7765429 97.104,78.6548732 97.104,93.8093591 C97.104,94.571061 97.062,96.8999196 97.008,98.381559 L83.032,98.381559 L83.032,98.381559 Z M64.73,98.381559 C64.512,96.5021641 64.378,93.8332244 64.378,92.307832 C64.378,79.5040813 73.672,54.2485936 85.088,47.9302469 C79.792,61.2471022 78.682,93.3996709 78.682,93.8093591 C78.682,93.8471459 78.7,96.4265905 78.776,98.381559 L64.73,98.381559 L64.73,98.381559 Z M96.748,53.7056573 C96.066,50.9651216 95.286,48.546768 94.398,46.6435077 C97.79,46.9239254 101.11,47.5961322 104.336,48.6302966 L96.748,53.7056573 L96.748,53.7056573 Z M45.828,90.804316 C45.828,70.7156727 59.336,53.7156012 77.792,48.2862381 C74.514,51.5180018 71.394,55.9907628 68.562,61.6090598 C63.516,71.6205666 60.126,83.9569545 60.126,92.307832 C60.126,93.622414 60.226,96.2137913 60.452,98.381559 L46.486,98.381559 C46.058,95.8955869 45.828,93.3579066 45.828,90.804316 L45.828,90.804316 Z M115.74,147.180197 L95.124,147.180197 L95.124,120.659847 L115.74,120.659847 L115.74,147.180197 L115.74,147.180197 Z M115.74,151.410327 L115.74,154.365651 L95.124,154.365651 L95.124,151.410327 L115.74,151.410327 L115.74,151.410327 Z M121.456,161.551104 L88.906,161.551104 L88.906,158.597769 L121.454,158.597769 L121.454,161.551104 L121.456,161.551104 Z M90.87,154.365651 L86.78,154.365651 C85.606,154.365651 84.654,155.314298 84.654,156.479721 L84.654,161.716173 L31.75,161.716173 L31.75,151.408338 L37.874,151.408338 L90.868,151.408338 L90.868,154.365651 L90.87,154.365651 Z M27.5,147.180197 L19.57,147.180197 L19.57,127.121385 L27.5,127.121385 L27.5,147.180197 L27.5,147.180197 Z M27.5,151.410327 L27.5,154.365651 L16.348,154.365651 L16.348,151.410327 L27.5,151.410327 L27.5,151.410327 Z M12.104,158.595781 L27.498,158.595781 L27.498,161.716173 L12.104,161.716173 L12.104,158.595781 L12.104,158.595781 Z M40.002,147.180197 L40.002,116.322322 L43.318,118.720788 C43.682,118.985296 44.12,119.126499 44.568,119.126499 L63.31,119.126499 L63.31,147.178208 L40.002,147.178208 L40.002,147.180197 Z M45.26,114.898358 L28.278,102.611689 L50.77,102.611689 L70.076,114.898358 L45.26,114.898358 L45.26,114.898358 Z M10.76,113.321257 L21.894,103.222244 L35.82,113.297392 C35.8,113.416718 35.748,113.522123 35.748,113.647416 L35.748,147.180197 L31.748,147.180197 L31.748,125.007315 C31.748,123.839902 30.796,122.893244 29.622,122.893244 L17.44,122.893244 C16.266,122.893244 15.314,123.841891 15.314,125.007315 L15.314,147.180197 L10.76,147.180197 L10.76,113.321257 L10.76,113.321257 Z M5.272,151.410327 L8.634,151.410327 L12.096,151.410327 L12.096,154.365651 L9.978,154.365651 C8.804,154.365651 7.852,155.314298 7.852,156.479721 L7.852,161.716173 L5.272,161.716173 L5.272,151.410327 L5.272,151.410327 Z M140.84,161.718162 L125.71,161.718162 L125.71,156.48171 C125.71,155.314298 124.756,154.367639 123.584,154.367639 L119.996,154.367639 L119.996,151.412316 L136.694,151.412316 L140.842,151.412316 L140.842,161.718162 L140.84,161.718162 Z M134.564,147.180197 L119.994,147.180197 L119.994,118.545776 C119.994,117.378363 119.04,116.431705 117.868,116.431705 L92.996,116.431705 C91.822,116.431705 90.87,117.380352 90.87,118.545776 L90.87,147.180197 L67.562,147.180197 L67.562,119.128488 L77.34,119.128488 C78.284,119.128488 79.116,118.507989 79.38,117.607073 C79.646,116.706157 79.282,115.739611 78.486,115.232472 L58.658,102.611689 L67.008,102.611689 L67.008,104.506994 C67.008,105.674407 67.96,106.621065 69.134,106.621065 C70.308,106.621065 71.26,105.672418 71.26,104.506994 L71.26,102.611689 L75.472,102.611689 L75.472,104.506994 C75.472,105.674407 76.424,106.621065 77.598,106.621065 C78.772,106.621065 79.724,105.672418 79.724,104.506994 L79.724,102.611689 L83.94,102.611689 L83.94,104.506994 C83.94,105.674407 84.892,106.621065 86.066,106.621065 C87.24,106.621065 88.192,105.672418 88.192,104.506994 L88.192,102.611689 L92.404,102.611689 L92.404,104.506994 C92.404,105.674407 93.358,106.621065 94.53,106.621065 C95.702,106.621065 96.656,105.672418 96.656,104.506994 L96.656,102.611689 L100.866,102.611689 L100.866,104.506994 C100.866,105.674407 101.82,106.621065 102.992,106.621065 C104.164,106.621065 105.118,105.672418 105.118,104.506994 L105.118,102.611689 L109.332,102.611689 L109.332,104.506994 C109.332,105.674407 110.286,106.621065 111.458,106.621065 C112.63,106.621065 113.584,105.672418 113.584,104.506994 L113.584,102.611689 L117.794,102.611689 L117.794,104.506994 C117.794,105.674407 118.748,106.621065 119.92,106.621065 C121.092,106.621065 122.046,105.672418 122.046,104.506994 L122.046,102.611689 L126.26,102.611689 L126.26,104.506994 C126.26,105.674407 127.214,106.621065 128.386,106.621065 C129.558,106.621065 130.512,105.672418 130.512,104.506994 L130.512,102.611689 L134.548,102.611689 L134.548,147.180197 L134.564,147.180197 Z M135.236,90.804316 C135.236,93.3479627 134.98,95.885643 134.55,98.381559 L118.38,98.381559 L135.102,87.3836184 C135.192,88.5211993 135.236,89.6647464 135.236,90.804316 L135.236,90.804316 Z M142.468,77.4695617 C141.562,78.0761389 140.454,78.3843995 139.178,78.3843995 C133.948,78.3843995 127.156,73.5457034 122.282,66.3443394 C116.07,57.1541978 114.804,46.7250476 119.522,43.5648799 L119.526,43.5628911 L119.526,43.5628911 C120.436,42.9563139 121.542,42.6480534 122.818,42.6480534 C128.05,42.6480534 134.84,47.4867495 139.712,54.6881134 C145.928,63.8782551 147.192,74.309394 142.468,77.4695617 L142.468,77.4695617 Z"></path>
                        <path d="M117.132,69.6874747 C115.128,66.7261847 113.566,63.5242527 112.614,60.4277258 C112.272,59.3100328 111.084,58.681579 109.96,59.0236488 C108.836,59.3657185 108.204,60.5470525 108.548,61.6627567 C109.62,65.1530616 111.37,68.7447941 113.604,72.0481538 C115.404,74.7091383 117.448,77.0976603 119.674,79.1500789 C120.084,79.5259578 120.602,79.7129029 121.12,79.7129029 C121.69,79.7129029 122.26,79.4861823 122.678,79.0367185 C123.476,78.1795554 123.426,76.841108 122.564,76.0495745 C120.58,74.2179102 118.752,72.0759967 117.132,69.6874747 L117.132,69.6874747 Z"></path>
                        <path d="M124.938,45.3925666 C123.716,45.3925666 122.622,45.7087822 121.688,46.3352472 C117.468,49.1593115 118.296,57.2178386 123.61,65.0754992 C127.626,71.0179669 132.92,74.8563079 137.1,74.8563079 C138.32,74.8563079 139.414,74.5400922 140.35,73.9136272 C144.568,71.0875742 143.738,63.0270582 138.42,55.1693976 C134.404,49.2328963 129.112,45.3925666 124.938,45.3925666 L124.938,45.3925666 Z M137.976,70.409401 C137.754,70.5585593 137.466,70.6301553 137.1,70.6301553 C134.808,70.6301553 130.648,67.913485 127.14,62.7168089 C122.96,56.5376767 122.52,50.8756266 124.064,49.8414622 C124.286,49.6923039 124.572,49.6207079 124.94,49.6207079 C127.23,49.6207079 131.384,52.3373782 134.896,57.5320655 C139.074,63.7111978 139.516,69.3772254 137.976,70.409401 L137.976,70.409401 Z"></path>
                        <path d="M126.84,51.3111689 C125.688,51.0506391 124.552,51.7566551 124.29,52.8922472 C124.024,54.029828 124.738,55.1654201 125.88,55.4299275 C126.6,55.5949961 128.818,57.0189609 131.08,60.3620961 C131.49,60.9686733 132.162,61.2968217 132.846,61.2968217 C133.254,61.2968217 133.666,61.1794838 134.03,60.9368529 C135.004,60.2845338 135.264,58.9719406 134.608,58.0034058 C132.184,54.4216172 129.208,51.856094 126.84,51.3111689 L126.84,51.3111689 Z"></path>
                        <path d="M129.97,124.450457 L123.92,124.450457 C122.746,124.450457 121.794,125.399104 121.794,126.564527 L121.794,136.928048 C121.794,138.09546 122.748,139.042119 123.92,139.042119 L129.97,139.042119 C131.144,139.042119 132.096,138.093472 132.096,136.928048 L132.096,126.564527 C132.098,125.399104 131.144,124.450457 129.97,124.450457 L129.97,124.450457 Z M127.844,134.813977 L126.048,134.813977 L126.048,128.680587 L127.844,128.680587 L127.844,134.813977 L127.844,134.813977 Z"></path>
                        <path d="M51.99,120.884578 C48.034,120.884578 44.936,125.387171 44.936,131.13275 C44.936,136.878328 48.034,141.380921 51.99,141.380921 C55.948,141.380921 59.046,136.878328 59.046,131.13275 C59.046,125.387171 55.946,120.884578 51.99,120.884578 L51.99,120.884578 Z M51.99,137.15278 C50.874,137.15278 49.188,134.752325 49.188,131.134739 C49.188,127.517152 50.874,125.116697 51.99,125.116697 C53.134,125.116697 54.794,127.461466 54.794,131.134739 C54.794,134.752325 53.106,137.15278 51.99,137.15278 L51.99,137.15278 Z"></path>
                    </g>
                </g>
                <rect id="Rectangle-13-Copy" fill-opacity="0" fill="#FFFFFF" x="0" y="0" width="230" height="205"></rect>
            </g>
        </g>
    </g>
</svg>