<?xml version="1.0" encoding="UTF-8" standalone="no"?>
<svg width="260px" height="176px" viewBox="0 0 260 176" version="1.1" xmlns="http://www.w3.org/2000/svg" xmlns:xlink="http://www.w3.org/1999/xlink">
    <!-- Generator: Sketch 3.6.1 (26313) - http://www.bohemiancoding.com/sketch -->
    <title>noun_95676_cc</title>
    <desc>Created with Sketch.</desc>
    <defs></defs>
    <g id="Page-1" stroke="none" stroke-width="1" fill="none" fill-rule="evenodd">
        <g id="Split-screen" transform="translate(-120.000000, -267.000000)" fill="#FFFFFF">
            <g id="noun_95676_cc" transform="translate(120.000000, 267.000000)">
                <g id="Group">
                    <g id="Shape">
                        <path d="M252.801475,50.7470188 C247.815945,38.1544618 239.156866,27.1359744 228.92341,19.5279712 C228.661014,19.2656263 228.398618,19.2656263 227.873825,19.2656263 C226.82424,18.4785914 225.774654,17.9539016 224.725069,17.1668667 C220.526728,15.0681072 215.541198,13.7563826 209.243687,13.4940376 L207.406912,13.4940376 C202.946175,13.4940376 198.223041,14.0187275 192.975115,15.0681072 C187.202396,16.3798319 181.692074,17.9539016 176.706544,20.315006 C164.373917,25.8242497 154.402857,34.7439776 145.218986,43.6637055 C144.431797,44.4507403 143.644608,45.2377751 142.857419,46.0248099 C142.857419,45.762465 142.595023,45.50012 142.595023,45.2377751 L142.332627,43.4013605 C141.283041,41.302601 140.495853,38.9414966 139.708664,36.5803922 C139.446267,35.7933573 139.183871,35.0063225 138.921475,34.2192877 C137.0847,28.972389 134.723134,23.4631453 130.524793,19.0032813 C128.163226,16.6421769 125.801659,14.2810724 122.9153,12.1823129 C121.340922,10.8705882 117.667373,9.29651861 114.781014,8.77182873 C112.94424,4.57430972 109.795484,1.95086034 105.859539,0.901480592 C104.547558,0.639135654 102.97318,0.376790716 101.398802,0.376790716 C96.6756682,0.376790716 92.4773272,2.47555022 89.5909677,4.04961985 C87.7541935,3.78727491 85.9174194,3.52492997 84.0806452,3.26258503 C80.6694931,2.73789516 77.258341,2.47555022 73.5847926,2.47555022 L71.4856221,2.47555022 C57.8410138,3.26258503 45.5083871,7.72244898 35.7997235,15.5927971 C27.9278341,21.8890756 20.8431336,31.0711485 15.0704147,42.3519808 C10.3472811,51.7963986 6.67373272,62.552541 4.04976959,74.0957183 C2.47539171,81.1790316 1.16341014,87.4753101 0.901013825,94.2962785 C0.638617512,101.117247 2.21299539,107.938215 4.83695853,114.496839 C7.19852535,120.006082 10.0848848,124.728291 14.0208295,128.663465 C17.4319816,132.336295 21.6303226,135.484434 27.6654378,138.632573 C30.8141935,140.468988 33.9629493,142.830092 37.1117051,144.928852 C41.3100461,148.076991 45.7707834,151.22513 51.0187097,153.586234 C55.2170507,155.422649 59.677788,156.209684 64.9257143,156.472029 C66.2376959,156.472029 67.8120737,156.472029 69.3864516,156.209684 C70.6984332,156.209684 72.0104147,155.947339 73.3223963,155.947339 C75.6839631,155.947339 77.5207373,156.209684 78.8327189,156.734374 C79.3575115,157.259064 80.1447005,157.783754 80.6694931,158.308443 C84.3430415,161.456583 89.0661751,164.342377 94.5764977,166.441136 C100.874009,169.064586 107.696313,170.901 114.781014,172.47507 C122.652903,174.04914 130.524793,175.098519 138.134286,175.098519 C144.431797,175.098519 150.729309,174.57383 156.764424,173.262105 C163.324332,171.95038 169.097051,169.851621 174.082581,166.965826 C178.805714,164.342377 183.266452,160.669548 187.464793,156.209684 C189.039171,154.373269 190.613548,152.536855 192.187926,150.438095 C215.541198,147.814646 238.89447,133.385674 250.439908,114.496839 C256.212627,105.052421 259.361382,94.0339336 259.623779,83.0154462 C259.361382,72.7839936 257.262212,61.5031613 252.801475,50.7470188 L252.801475,50.7470188 Z M70.6984332,152.536855 L66.7624885,152.536855 C64.9257143,152.536855 63.3513364,152.536855 61.5145622,152.27451 C56.5290323,152.012165 51.0187097,149.913405 45.2459908,145.978231 C43.1468203,144.666507 41.0476498,143.092437 39.2108756,141.518367 C36.5869124,139.419608 33.700553,137.320848 30.5517972,135.484434 C25.5662673,132.860984 21.10553,129.97519 17.1695853,126.040016 C8.77290323,117.644978 4.3121659,105.052421 5.09935484,92.4598639 C5.36175115,85.6388956 6.93612903,79.0802721 8.51050691,72.7839936 C9.82248848,67.5370948 11.3968664,62.2901961 13.2336406,57.3056423 C17.4319816,45.50012 22.9423041,35.5310124 29.502212,27.6606643 C37.3741014,18.2162465 47.3451613,11.657623 58.1034101,8.77182873 C63.0889401,7.46010404 68.3368664,6.67306923 73.5847926,6.67306923 C74.8967742,6.67306923 76.4711521,6.67306923 77.7831336,6.93541417 C80.1447005,7.1977591 82.7686636,7.46010404 85.1302304,7.72244898 C84.6054378,8.24713886 84.6054378,9.03417367 84.8678341,9.55886355 C85.1302304,10.3458984 85.9174194,10.8705882 86.7046083,10.8705882 C87.2294009,10.8705882 87.7541935,10.6082433 88.0165899,10.3458984 C91.9525346,6.67306923 96.9380645,4.57430972 101.136406,4.57430972 C102.185991,4.57430972 103.235576,4.57430972 104.285161,4.83665466 C111.894654,6.67306923 112.419447,15.8551421 112.157051,18.7409364 C112.157051,19.2656263 112.419447,19.7903161 112.681843,20.0526611 C112.94424,20.315006 113.469032,20.5773509 113.993825,20.5773509 C115.04341,20.5773509 116.092995,19.7903161 116.092995,18.7409364 C116.092995,16.9045218 116.092995,15.0681072 115.830599,13.4940376 C117.142581,14.0187275 118.454562,14.5434174 119.241751,14.8057623 C121.078525,15.8551421 122.652903,17.4292117 125.01447,19.5279712 C126.326452,20.8396959 127.900829,22.4137655 129.475207,24.2501801 C131.574378,26.8736295 132.886359,30.2841136 133.935945,32.6452181 C134.723134,34.4816327 135.247926,36.3180472 136.035115,37.8921168 C136.559908,39.2038415 136.822304,40.5155662 137.347097,41.564946 C138.134286,43.6637055 138.921475,45.762465 139.97106,47.5988796 C140.233456,48.3859144 140.495853,48.9106042 141.020645,49.6976391 C143.382212,55.2068828 145.743779,60.9784714 147.05576,67.2747499 C148.105346,73.0463385 147.842949,78.2932373 146.006175,83.0154462 C141.020645,84.0648259 135.772719,85.1142057 129.475207,85.6388956 C128.163226,85.9012405 126.851244,85.9012405 125.539263,86.1635854 C122.128111,86.4259304 118.716959,86.9506202 115.305806,87.4753101 C111.107465,88 106.909124,88.7870348 102.97318,89.5740696 L99.5620276,90.3611044 C95.8884793,91.1481393 92.2149309,91.9351741 88.5413825,92.9845538 C87.7541935,93.2468988 86.9670046,93.5092437 85.9174194,93.5092437 C84.6054378,93.7715886 83.2934562,94.0339336 81.9814747,94.5586234 C80.6694931,95.0833133 79.6199078,95.6080032 78.3079263,95.6080032 C77.7831336,95.6080032 77.5207373,95.6080032 76.9959447,95.8703481 C75.9463594,95.8703481 75.1591705,96.1326931 74.1095853,96.395038 C73.5847926,96.657383 73.3223963,96.9197279 73.06,97.1820728 C69.3864516,102.691317 68.861659,108.987595 68.3368664,115.021529 L68.3368664,116.070908 C68.3368664,117.382633 68.07447,118.694358 67.8120737,120.006082 C67.5496774,121.580152 67.5496774,123.416567 67.2872811,124.990636 C67.0248848,127.614086 67.2872811,130.237535 67.5496774,132.860984 C68.3368664,139.944298 70.6984332,146.765266 74.6343779,152.27451 L73.06,152.27451 C72.2728111,152.536855 71.4856221,152.7992 70.6984332,152.536855 L70.6984332,152.536855 Z M165.423502,81.4413766 C168.047465,80.3919968 170.671429,79.604962 173.557788,79.0802721 C176.181751,78.5555822 179.068111,78.5555822 181.692074,78.2932373 L183.004055,78.2932373 C186.152811,78.0308924 189.563963,78.0308924 192.975115,77.2438575 C193.499908,77.2438575 194.287097,76.9815126 195.074286,76.9815126 C196.386267,76.9815126 197.435853,76.7191677 198.747834,76.4568227 C199.01023,78.8179272 199.272627,80.9166867 199.797419,83.2777911 C200.322212,86.9506202 201.109401,90.8857943 200.847005,94.5586234 C200.584608,100.854902 199.272627,107.413525 196.386267,116.070908 C194.549493,121.580152 192.187926,128.138776 188.514378,133.648019 C188.251982,133.910364 187.989585,134.435054 187.727189,134.697399 C185.103226,130.762225 181.95447,127.351741 179.330507,124.203601 L178.543318,123.416567 C176.96894,121.842497 175.394562,120.006082 174.082581,118.169668 C173.820184,117.907323 173.557788,117.644978 173.295392,117.120288 C172.245806,115.808563 170.933825,114.234494 169.621843,112.922769 C166.99788,110.561665 164.373917,108.462905 161.487558,106.364146 C160.700369,105.839456 159.91318,105.314766 159.125991,104.527731 C155.977235,102.166627 152.828479,99.8055222 150.729309,96.395038 C150.991705,95.8703481 151.254101,95.6080032 151.254101,95.0833133 C151.254101,94.8209684 151.516498,94.5586234 151.516498,94.5586234 C155.714839,94.8209684 160.437972,95.3456583 165.423502,96.395038 C167.522673,96.9197279 169.88424,97.4444178 171.98341,97.9691076 C173.820184,98.4937975 175.656959,99.0184874 177.493733,99.2808323 L179.330507,99.8055222 C181.95447,100.330212 184.578433,101.117247 187.202396,101.904282 C188.514378,102.166627 190.088756,102.691317 191.400737,103.478351 C192.187926,103.740696 192.975115,104.265386 193.237512,104.790076 C193.499908,105.314766 194.287097,105.839456 194.811889,105.839456 C195.599078,105.839456 196.123871,105.314766 196.648664,104.790076 C196.91106,104.265386 196.91106,103.478351 196.648664,102.953661 C195.336682,100.592557 192.187926,99.5431773 189.826359,98.7561425 L189.301567,98.4937975 C186.415207,97.4444178 183.266452,96.657383 180.117696,96.1326931 L178.805714,95.8703481 C176.96894,95.3456583 174.86977,94.8209684 173.032995,94.2962785 C170.933825,93.7715886 168.834654,93.2468988 166.473088,92.7222089 C161.225161,91.4104842 156.502028,90.8857943 152.04129,90.6234494 C152.04129,89.5740696 151.778894,88.5246899 150.991705,87.7376551 C150.729309,87.2129652 150.204516,86.9506202 149.679724,86.9506202 C148.892535,86.9506202 148.105346,87.4753101 147.842949,88.2623449 C147.580553,89.0493798 147.580553,89.8364146 148.105346,90.3611044 C148.367742,90.6234494 148.367742,91.1481393 147.318157,93.7715886 C146.530968,95.8703481 145.218986,97.4444178 143.644608,99.0184874 C142.857419,99.8055222 141.807834,100.067867 140.495853,100.067867 C136.822304,100.067867 131.836774,97.1820728 131.049585,96.657383 L131.049585,96.657383 C130.787189,96.657383 130.787189,96.395038 130.787189,96.1326931 C130.787189,95.8703481 130.524793,95.6080032 130.524793,95.3456583 C130.524793,95.0833133 130.524793,95.0833133 130.262396,94.8209684 L130.262396,94.5586234 L130.262396,94.2962785 L130.262396,94.2962785 L130.262396,93.5092437 C130.262396,92.9845538 130.524793,92.4598639 130.524793,91.9351741 C130.524793,91.6728291 130.787189,91.1481393 130.787189,90.8857943 C131.049585,90.6234494 131.049585,90.0987595 130.787189,89.8364146 C133.673548,89.5740696 136.822304,89.0493798 139.708664,88.5246899 C147.580553,87.2129652 155.190046,84.8518607 161.487558,82.7531012 C163.061935,82.2284114 164.373917,81.7037215 165.423502,81.4413766 L165.423502,81.4413766 Z M156.502028,157.259064 C154.140461,152.27451 152.566083,146.765266 152.303687,139.944298 C152.04129,137.583193 152.04129,135.222089 152.04129,132.860984 L152.04129,131.286915 L152.04129,130.237535 C152.04129,128.138776 152.04129,126.040016 151.516498,123.941257 C150.729309,120.530772 149.417327,117.382633 148.105346,113.972149 C147.842949,113.185114 147.580553,112.398079 147.05576,111.611044 C146.268571,109.77463 145.743779,107.938215 145.218986,106.364146 L145.218986,106.101801 C144.95659,105.577111 144.694194,104.527731 144.694194,104.003041 C144.95659,103.740696 145.481382,103.478351 145.743779,103.478351 C146.793364,102.691317 147.580553,101.904282 148.367742,100.854902 C151.516498,104.790076 155.452442,107.67587 159.388387,110.561665 C161.749954,112.135734 164.111521,113.972149 166.210691,115.808563 C167.785069,117.382633 169.359447,118.956703 170.409032,120.530772 C171.98341,122.367187 173.820184,124.465946 175.394562,126.302361 L176.181751,127.089396 C179.330507,130.762225 182.741659,134.435054 185.365622,138.632573 C182.741659,141.780712 179.8553,144.666507 176.444147,147.552301 C170.146636,152.7992 163.586728,156.472029 157.02682,158.833133 C156.764424,157.783754 156.502028,157.521409 156.502028,157.259064 L156.502028,157.259064 Z M126.588848,93.2468988 C123.702488,94.2962785 120.816129,95.3456583 117.92977,96.395038 C113.469032,97.9691076 108.745899,99.5431773 104.285161,101.379592 C97.4628571,104.265386 89.8533641,107.67587 84.6054378,113.709804 L84.6054378,113.185114 L84.3430415,112.398079 C84.0806452,111.086355 83.8182488,109.512285 83.2934562,107.938215 C83.0310599,107.15118 82.7686636,106.364146 82.5062673,105.839456 C82.5062673,105.577111 82.243871,105.314766 82.243871,105.314766 C82.243871,105.052421 82.243871,105.052421 81.9814747,104.790076 C81.9814747,104.527731 81.7190783,104.265386 81.7190783,104.003041 C81.7190783,104.003041 81.7190783,103.740696 81.456682,103.740696 C81.1942857,103.478351 81.1942857,102.953661 80.9318894,102.428972 C80.6694931,101.641937 80.4070968,101.117247 80.1447005,100.592557 C79.8823041,100.067867 79.6199078,99.5431773 79.0951152,99.2808323 C79.8823041,99.0184874 80.9318894,99.0184874 81.7190783,98.7561425 C84.0806452,98.2314526 86.1798157,97.9691076 87.7541935,97.4444178 C90.640553,96.395038 93.5269124,95.6080032 96.6756682,94.8209684 C104.022765,93.2468988 110.845069,91.9351741 117.667373,90.8857943 C120.291336,90.6234494 122.9153,90.3611044 125.539263,90.0987595 C126.064055,90.0987595 126.326452,90.0987595 126.851244,89.8364146 C126.851244,91.1481393 126.588848,92.197519 126.588848,93.2468988 L126.588848,93.2468988 Z M86.1798157,117.382633 C88.5413825,114.234494 91.9525346,111.873389 94.3141014,110.561665 C97.4628571,108.72525 101.136406,106.888836 106.121935,104.790076 C110.320276,103.216006 114.781014,101.641937 118.979355,100.067867 C121.603318,99.2808323 124.227281,98.2314526 127.113641,97.1820728 C127.376037,97.4444178 127.376037,97.7067627 127.638433,97.9691076 C127.900829,98.2314526 127.900829,98.4937975 128.163226,98.7561425 C128.425622,99.8055222 129.212811,100.330212 130,100.592557 C130,100.592557 130.262396,100.592557 130.262396,100.854902 L130.524793,100.854902 C131.836774,101.641937 133.148756,102.428972 134.460737,102.953661 C133.935945,103.216006 133.673548,103.478351 133.411152,104.003041 C130.787189,109.24994 127.638433,114.234494 124.489677,119.219048 C119.241751,127.614086 113.731429,136.271469 110.845069,145.978231 C108.745899,144.141817 106.909124,142.305402 105.07235,140.468988 C103.760369,139.157263 102.448387,137.845538 101.136406,136.533814 C96.9380645,132.598639 93.0021198,128.663465 89.3285714,124.203601 C87.7541935,122.104842 86.7046083,120.530772 86.1798157,118.694358 C86.1798157,118.432013 85.9174194,118.169668 85.9174194,117.907323 C85.655023,117.907323 85.9174194,117.907323 86.1798157,117.382633 L86.1798157,117.382633 Z M127.638433,121.317807 C130.787189,116.333253 133.935945,111.348699 136.822304,105.839456 C137.0847,105.314766 137.0847,104.527731 136.822304,104.003041 C138.134286,104.527731 139.446267,104.527731 140.758249,104.527731 C140.758249,105.052421 141.020645,105.839456 141.283041,106.364146 C141.807834,108.20056 142.332627,110.036975 143.119816,111.611044 L143.119816,111.873389 C143.382212,112.660424 143.907005,113.709804 144.169401,114.496839 C145.481382,117.644978 146.793364,120.793117 147.580553,123.941257 C148.105346,125.777671 148.105346,127.614086 148.105346,129.712845 L148.105346,131.02457 L148.105346,132.598639 C148.105346,135.222089 148.105346,137.845538 148.367742,140.468988 C148.892535,147.552301 150.466912,153.848579 153.090876,159.095478 C153.090876,159.095478 153.090876,159.357823 153.353272,159.357823 C149.94212,160.144858 146.793364,160.669548 143.382212,160.931893 L142.332627,160.931893 C132.886359,160.931893 123.177696,156.996719 113.731429,149.388715 C116.355392,139.157263 122.128111,129.97519 127.638433,121.317807 L127.638433,121.317807 Z M208.718894,96.395038 C211.605253,96.9197279 214.754009,97.4444178 217.640369,99.0184874 C216.065991,101.117247 214.491613,102.953661 213.179631,104.790076 C211.86765,106.364146 210.555668,107.938215 209.243687,109.77463 C209.506083,105.577111 209.243687,101.117247 208.718894,96.395038 L208.718894,96.395038 Z M151.778894,49.959984 C159.388387,43.1390156 167.260276,36.3180472 175.919355,31.0711485 C178.018525,29.7594238 180.117696,28.710044 182.216866,27.9230092 C184.316037,29.4970788 185.365622,32.3828731 185.890415,34.2192877 C186.94,37.6297719 187.202396,41.0402561 187.202396,44.1883954 C187.464793,47.0741897 187.202396,50.2223289 187.202396,53.1081232 C187.202396,56.7809524 187.202396,60.4537815 187.464793,64.1266106 C187.464793,65.1759904 188.514378,65.9630252 189.563963,65.9630252 C190.088756,65.9630252 190.613548,65.7006803 191.138341,65.4383353 C191.400737,65.1759904 191.663134,64.6513005 191.663134,64.1266106 C191.400737,60.4537815 191.400737,56.7809524 191.400737,53.1081232 L191.400737,43.1390156 C191.138341,37.105082 190.351152,30.2841136 186.415207,26.0865946 C187.989585,25.5619048 189.563963,25.0372149 191.400737,24.7748699 C196.386267,23.7254902 201.634194,23.4631453 206.88212,23.7254902 C212.392442,24.2501801 217.377972,25.5619048 221.576313,27.6606643 C225.512258,29.7594238 228.398618,32.907563 230.497788,37.105082 C232.596959,41.0402561 233.90894,46.0248099 234.433733,51.7963986 C234.958525,57.0432973 234.958525,62.2901961 234.171336,67.2747499 C232.596959,76.4568227 227.873825,84.5895158 223.150691,91.4104842 C222.363502,92.7222089 221.313917,94.0339336 220.264332,95.6080032 C216.590783,93.5092437 212.130046,92.7222089 208.194101,92.197519 C207.144516,86.1635854 205.307742,79.8673069 202.683779,72.7839936 C202.421382,71.9969588 201.634194,71.4722689 200.847005,71.4722689 L200.584608,71.4722689 C200.059816,71.4722689 199.535023,71.4722689 199.01023,71.9969588 C198.485438,72.5216487 197.173456,72.5216487 195.861475,72.7839936 C195.074286,72.7839936 194.287097,72.7839936 193.499908,73.0463385 C191.138341,73.5710284 189.039171,73.8333733 186.415207,73.8333733 C185.103226,73.8333733 184.053641,74.0957183 182.741659,74.0957183 C179.068111,74.3580632 175.394562,74.3580632 171.721014,75.407443 C169.621843,75.9321329 167.260276,76.7191677 165.423502,77.5062025 C164.373917,77.7685474 163.586728,78.2932373 162.537143,78.5555822 C158.601198,79.8673069 155.190046,80.9166867 152.04129,81.9660664 C151.778894,81.9660664 151.254101,82.2284114 150.991705,82.2284114 C152.303687,77.2438575 152.303687,72.2593037 151.516498,67.2747499 C152.828479,67.7994398 154.140461,68.8488195 155.452442,69.6358543 C157.814009,71.209924 160.437972,72.7839936 163.324332,73.3086835 L163.586728,73.3086835 L163.586728,73.3086835 C164.636313,73.3086835 165.423502,72.5216487 165.685899,71.4722689 C165.685899,70.4228892 165.161106,69.6358543 164.111521,69.3735094 C161.487558,68.8488195 159.388387,67.5370948 157.02682,65.9630252 C155.452442,64.9136455 153.615668,63.8642657 151.516498,63.0772309 C151.254101,63.0772309 150.991705,62.814886 150.729309,62.814886 L150.204516,62.814886 C149.417327,59.9290916 148.367742,57.0432973 147.318157,54.157503 C148.630138,52.8457783 150.204516,51.2717087 151.778894,49.959984 L151.778894,49.959984 Z M234.171336,31.0711485 C237.844885,35.5310124 241.780829,41.302601 243.092811,47.3365346 C243.617604,50.4846739 243.355207,53.8951581 242.830415,57.0432973 C242.568018,60.1914366 241.780829,63.6019208 240.731244,67.5370948 C239.156866,73.0463385 237.057696,78.2932373 234.958525,83.2777911 L233.646544,86.4259304 C231.547373,91.6728291 229.185806,97.1820728 225.774654,102.166627 C222.625899,106.626491 218.165161,110.036975 213.96682,113.447459 C212.130046,115.021529 210.293272,116.333253 208.456498,117.907323 L208.456498,117.907323 C211.080461,114.234494 213.96682,110.561665 216.590783,107.15118 C221.83871,100.592557 227.086636,93.5092437 231.547373,86.1635854 C234.958525,80.3919968 237.057696,75.145098 237.844885,70.1605442 C238.89447,65.4383353 239.156866,60.1914366 238.632074,54.4198479 C238.107281,45.50012 235.483318,33.6945978 227.349032,26.8736295 C221.576313,22.1514206 213.179631,19.7903161 202.946175,19.7903161 C201.109401,19.7903161 199.01023,19.7903161 197.173456,20.0526611 C192.450323,20.5773509 188.251982,21.3643858 184.316037,22.6761104 C179.592903,24.2501801 174.86977,26.8736295 169.359447,30.5464586 C162.274747,35.2686675 155.714839,41.302601 149.154931,46.8118447 C147.842949,47.8612245 146.530968,49.1729492 145.218986,50.2223289 C145.218986,49.959984 144.95659,49.6976391 144.95659,49.4352941 C153.878065,40.5155662 163.324332,31.5958383 175.132166,25.2995598 C184.840829,20.0526611 196.123871,17.1668667 207.144516,17.1668667 L207.931705,17.1668667 C213.442028,17.1668667 218.165161,18.2162465 222.101106,19.7903161 C226.82424,21.8890756 230.235392,26.0865946 233.646544,30.2841136 L234.171336,31.0711485 L234.171336,31.0711485 Z M71.7480184,120.006082 C71.7480184,119.219048 72.0104147,118.432013 72.0104147,117.644978 C72.0104147,116.857943 72.2728111,115.808563 72.2728111,115.021529 C72.2728111,113.972149 72.5352074,113.185114 72.5352074,112.135734 C72.7976037,110.036975 73.06,108.20056 73.3223963,106.888836 C73.8471889,105.052421 74.3719816,103.478351 74.8967742,101.904282 C74.8967742,101.641937 75.1591705,101.641937 75.1591705,101.379592 L75.6839631,101.904282 C75.9463594,102.166627 75.9463594,102.166627 76.2087558,102.428972 L76.4711521,102.691317 L76.7335484,102.953661 C77.7831336,103.740696 78.3079263,105.052421 78.5703226,107.15118 L78.5703226,107.413525 L78.5703226,107.67587 C79.0951152,109.512285 79.6199078,111.611044 79.8823041,113.447459 C80.1447005,114.496839 80.4070968,115.546218 80.4070968,116.595598 C81.1942857,119.743737 81.9814747,122.104842 83.5558525,123.941257 C85.1302304,126.302361 87.2294009,128.663465 89.8533641,131.54926 C92.7397235,134.435054 95.6260829,137.320848 98.5124424,140.206643 C100.349217,142.043057 102.448387,143.879472 104.285161,145.715886 C109.008295,150.438095 113.731429,154.110924 118.454562,156.996719 C123.702488,160.144858 129.212811,162.243617 134.723134,163.292997 C140.495853,164.342377 146.793364,164.080032 153.090876,162.243617 C164.111521,159.357823 175.394562,152.536855 184.316037,143.354782 C188.251982,139.157263 191.663134,134.697399 194.0247,129.712845 C196.91106,123.941257 199.01023,117.382633 200.584608,111.873389 C202.421382,105.577111 203.470968,100.330212 203.733364,95.3456583 C204.782949,102.428972 204.782949,108.72525 203.470968,114.759184 C203.470968,115.021529 203.208571,115.546218 203.208571,115.808563 L203.208571,115.808563 C201.89659,122.104842 199.01023,128.138776 196.386267,133.123329 C193.499908,138.370228 190.613548,143.354782 187.202396,147.552301 C179.8553,157.259064 170.409032,164.080032 160.175576,167.228171 C153.090876,169.326931 145.218986,170.638655 136.822304,170.638655 C131.049585,170.638655 125.01447,170.113966 118.979355,169.064586 C112.419447,168.015206 105.597143,166.178792 98.7748387,163.817687 C92.2149309,161.456583 87.4917972,159.095478 83.5558525,156.209684 C75.9463594,150.70044 71.2232258,142.305402 70.1736406,132.598639 C70.9608295,129.188155 71.4856221,124.728291 71.7480184,120.006082 L71.7480184,120.006082 Z M224.725069,135.484434 C217.115576,140.468988 205.832535,144.666507 195.074286,146.240576 C199.01023,140.468988 202.421382,133.910364 205.570138,126.564706 C205.570138,126.302361 205.832535,126.040016 205.832535,126.040016 C208.456498,122.629532 211.86765,120.006082 215.278802,117.382633 C216.065991,116.857943 216.85318,116.070908 217.640369,115.546218 C221.83871,112.135734 226.299447,108.20056 229.710599,103.216006 C232.859355,98.7561425 234.958525,93.5092437 236.7953,88.5246899 C237.320092,87.4753101 237.582488,86.4259304 238.107281,85.3765506 C240.731244,78.8179272 243.355207,72.5216487 245.191982,65.7006803 C245.979171,62.2901961 246.766359,58.6173669 247.028756,55.2068828 C247.291152,52.8457783 247.291152,50.2223289 247.028756,47.5988796 C247.028756,47.8612245 247.291152,48.1235694 247.291152,48.3859144 C252.014286,58.355022 254.638249,69.6358543 254.900645,80.3919968 C255.163041,91.1481393 252.539078,101.904282 247.291152,111.348699 C242.305622,120.793117 234.171336,129.188155 224.725069,135.484434 L224.725069,135.484434 Z"></path>
                        <path d="M169.097051,58.8797119 C172.245806,61.5031613 175.656959,64.3889556 179.330507,68.0617847 C179.592903,68.3241297 180.117696,68.5864746 180.642488,68.5864746 L180.642488,68.5864746 C181.429677,68.5864746 181.95447,68.0617847 182.216866,67.5370948 C182.479263,66.75006 182.216866,66.2253701 181.95447,65.7006803 C178.280922,62.0278511 174.86977,59.1420568 171.458618,56.5186074 C167.522673,53.3704682 163.849124,50.2223289 159.650783,45.762465 C159.388387,45.50012 158.863594,45.2377751 158.338802,45.2377751 C157.551613,45.2377751 157.02682,45.762465 156.764424,46.2871549 C156.502028,46.8118447 156.502028,47.5988796 157.02682,48.1235694 C161.225161,52.5834334 165.161106,55.7315726 169.097051,58.8797119 L169.097051,58.8797119 Z"></path>
                        <path d="M200.322212,63.0772309 C201.109401,63.0772309 201.634194,62.814886 201.89659,62.0278511 C202.683779,60.4537815 203.733364,58.6173669 204.520553,57.0432973 C206.357327,53.6328131 208.456498,49.959984 210.030876,46.2871549 C212.392442,41.0402561 214.754009,35.2686675 214.229217,29.2347339 C214.229217,28.1853541 213.179631,27.3983193 212.130046,27.3983193 C211.605253,27.3983193 211.080461,27.6606643 210.555668,27.9230092 C210.293272,28.1853541 210.030876,28.710044 210.030876,29.4970788 C210.555668,34.7439776 208.456498,39.9908764 206.094931,45.2377751 C204.520553,48.6482593 202.683779,52.0587435 200.847005,55.2068828 C200.059816,56.7809524 199.01023,58.6173669 198.223041,60.1914366 C197.960645,60.7161265 197.960645,61.5031613 198.223041,62.0278511 C198.747834,62.814886 199.535023,63.0772309 200.322212,63.0772309 L200.322212,63.0772309 Z"></path>
                        <path d="M203.208571,70.1605442 C203.470968,70.947579 204.258157,71.4722689 205.045346,71.4722689 L205.045346,71.4722689 C205.570138,71.4722689 205.832535,71.209924 206.094931,71.209924 C213.704424,65.7006803 223.413088,58.0926771 231.80977,48.9106042 C232.334562,48.3859144 232.596959,47.5988796 232.072166,46.8118447 C231.80977,46.0248099 231.022581,45.50012 230.235392,45.50012 C229.710599,45.50012 229.185806,45.762465 228.92341,46.0248099 C220.526728,54.9445378 211.080461,62.2901961 203.733364,67.7994398 C203.208571,68.3241297 202.683779,69.3735094 203.208571,70.1605442 L203.208571,70.1605442 Z"></path>
                        <path d="M228.398618,73.0463385 C228.398618,73.0463385 228.136221,73.0463385 228.398618,73.0463385 C226.82424,73.3086835 225.249862,73.3086835 223.675484,73.5710284 C218.165161,74.0957183 212.392442,74.6204082 206.88212,75.407443 C205.832535,75.6697879 205.045346,76.4568227 205.045346,77.7685474 C205.045346,78.8179272 205.832535,79.604962 206.88212,79.604962 L206.88212,79.604962 L207.144516,79.604962 C212.654839,78.8179272 218.427558,78.2932373 223.93788,77.7685474 C225.512258,77.5062025 226.82424,77.5062025 228.398618,77.2438575 C229.448203,77.2438575 230.235392,76.1944778 230.235392,75.145098 C230.235392,73.8333733 229.448203,73.0463385 228.398618,73.0463385 L228.398618,73.0463385 Z"></path>
                        <path d="M71.2232258,77.5062025 C70.1736406,77.5062025 69.1240553,78.2932373 69.1240553,79.604962 L69.1240553,80.3919968 C69.1240553,81.4413766 69.9112442,82.4907563 71.2232258,82.4907563 C72.5352074,82.4907563 73.3223963,81.7037215 73.3223963,80.3919968 L73.3223963,79.604962 C73.3223963,78.5555822 72.2728111,77.5062025 71.2232258,77.5062025 L71.2232258,77.5062025 Z"></path>
                        <path d="M50.7563134,69.1111645 C50.2315207,69.1111645 49.7067281,69.3735094 49.1819355,69.8981993 C48.9195392,70.1605442 48.6571429,70.6852341 48.6571429,71.209924 C48.6571429,72.2593037 49.4443318,73.3086835 50.4939171,73.3086835 C51.0187097,73.3086835 51.5435023,73.0463385 52.0682949,72.5216487 C52.3306912,72.2593037 52.5930876,71.7346138 52.5930876,71.209924 C52.5930876,69.8981993 51.8058986,69.1111645 50.7563134,69.1111645 L50.7563134,69.1111645 Z"></path>
                        <path d="M37.1117051,64.6513005 L36.3245161,65.4383353 C35.5373272,66.2253701 35.5373272,67.5370948 36.3245161,68.3241297 C36.5869124,68.5864746 37.1117051,68.8488195 37.6364977,68.8488195 C38.1612903,68.8488195 38.6860829,68.5864746 38.9484793,68.3241297 L39.7356682,67.5370948 C39.9980645,67.2747499 40.2604608,66.75006 40.2604608,66.2253701 C40.2604608,65.7006803 39.9980645,65.1759904 39.7356682,64.9136455 C39.2108756,63.8642657 37.898894,63.8642657 37.1117051,64.6513005 L37.1117051,64.6513005 Z"></path>
                        <path d="M50.7563134,52.0587435 C50.2315207,52.0587435 49.7067281,52.3210884 49.1819355,52.8457783 C48.9195392,53.1081232 48.6571429,53.6328131 48.6571429,54.157503 C48.6571429,55.2068828 49.4443318,56.2562625 50.4939171,56.2562625 C51.0187097,56.2562625 51.5435023,55.9939176 52.0682949,55.4692277 C52.3306912,55.2068828 52.5930876,54.6821929 52.5930876,54.157503 C52.5930876,52.8457783 51.8058986,52.0587435 50.7563134,52.0587435 L50.7563134,52.0587435 Z"></path>
                        <path d="M48.9195392,64.6513005 L48.9195392,64.6513005 L49.4443318,64.6513005 L49.4443318,64.6513005 C49.9691244,64.6513005 50.4939171,64.3889556 50.7563134,63.8642657 C51.0187097,63.6019208 51.281106,63.0772309 51.281106,62.552541 C51.281106,61.5031613 50.4939171,60.7161265 49.4443318,60.4537815 C48.1323502,60.1914366 46.8203687,60.7161265 45.7707834,61.7655062 C45.2459908,62.2901961 44.9835945,63.0772309 45.2459908,63.8642657 C45.5083871,64.6513005 46.295576,65.1759904 47.082765,65.1759904 C47.6075576,65.1759904 48.1323502,64.9136455 48.3947465,64.6513005 L48.9195392,64.6513005 L48.9195392,64.6513005 Z"></path>
                        <path d="M72.5352074,65.4383353 L72.2728111,65.4383353 C71.7480184,65.4383353 71.2232258,65.7006803 70.6984332,66.2253701 C70.4360369,66.4877151 70.1736406,67.012405 70.1736406,67.5370948 C70.1736406,68.5864746 70.9608295,69.6358543 72.0104147,69.6358543 L72.5352074,69.6358543 C73.06,69.6358543 73.5847926,69.3735094 74.1095853,68.8488195 C74.3719816,68.5864746 74.6343779,68.0617847 74.6343779,67.5370948 C74.6343779,66.4877151 73.8471889,65.4383353 72.5352074,65.4383353 L72.5352074,65.4383353 Z"></path>
                        <path d="M61.2521659,55.7315726 C60.7273733,55.7315726 60.2025806,55.9939176 59.677788,56.5186074 C59.4153917,56.7809524 59.1529954,57.3056423 59.1529954,57.8303321 C59.1529954,58.8797119 59.9401843,59.9290916 60.9897696,59.9290916 C61.5145622,59.9290916 62.0393548,59.6667467 62.5641475,59.1420568 C62.8265438,58.8797119 63.0889401,58.355022 63.0889401,57.8303321 C63.3513364,56.5186074 62.3017512,55.7315726 61.2521659,55.7315726 L61.2521659,55.7315726 Z"></path>
                        <path d="M41.5724424,49.6976391 C40.5228571,49.6976391 39.7356682,50.2223289 39.4732719,50.4846739 C38.9484793,50.7470188 38.9484793,51.2717087 38.6860829,51.7963986 C38.6860829,52.3210884 38.9484793,52.8457783 39.2108756,53.3704682 C39.7356682,53.8951581 40.5228571,54.157503 41.3100461,53.8951581 C41.5724424,53.8951581 41.8348387,54.157503 42.097235,54.157503 C42.6220276,54.157503 43.1468203,53.8951581 43.4092166,53.6328131 C44.1964055,52.8457783 44.1964055,51.5340536 43.4092166,50.7470188 C43.1468203,49.959984 42.3596313,49.6976391 41.5724424,49.6976391 L41.5724424,49.6976391 Z"></path>
                        <path d="M30.8141935,54.6821929 L30.8141935,53.3704682 C30.8141935,52.3210884 30.0270046,51.2717087 28.715023,51.2717087 C27.6654378,51.2717087 26.6158525,52.0587435 26.6158525,53.3704682 L26.6158525,54.6821929 C26.6158525,55.7315726 27.4030415,56.7809524 28.715023,56.7809524 C29.7646083,56.7809524 30.8141935,55.9939176 30.8141935,54.6821929 L30.8141935,54.6821929 Z"></path>
                        <path d="M50.7563134,43.4013605 C51.0187097,43.1390156 51.281106,42.6143257 51.281106,42.0896359 C51.281106,41.0402561 50.4939171,39.9908764 49.4443318,39.9908764 C48.9195392,39.9908764 48.3947465,40.2532213 47.8699539,40.7779112 C47.6075576,41.0402561 47.3451613,41.564946 47.3451613,42.0896359 C47.3451613,43.1390156 48.1323502,44.1883954 49.1819355,44.1883954 C49.9691244,44.1883954 50.4939171,43.9260504 50.7563134,43.4013605 L50.7563134,43.4013605 Z"></path>
                        <path d="M41.5724424,38.4168067 C42.6220276,38.4168067 43.6716129,37.6297719 43.6716129,36.3180472 L43.6716129,35.5310124 C43.6716129,34.4816327 42.884424,33.4322529 41.5724424,33.4322529 C40.2604608,33.4322529 39.4732719,34.2192877 39.4732719,35.5310124 L39.4732719,36.3180472 C39.4732719,37.6297719 40.2604608,38.4168067 41.5724424,38.4168067 L41.5724424,38.4168067 Z"></path>
                        <path d="M63.3513364,18.2162465 L62.5641475,18.2162465 C61.5145622,18.2162465 60.464977,19.0032813 60.464977,20.315006 C60.464977,21.3643858 61.2521659,22.4137655 62.5641475,22.4137655 L63.3513364,22.4137655 C64.4009217,22.4137655 65.4505069,21.6267307 65.4505069,20.315006 C65.4505069,19.0032813 64.4009217,18.2162465 63.3513364,18.2162465 L63.3513364,18.2162465 Z"></path>
                        <path d="M49.1819355,27.1359744 C49.7067281,27.1359744 50.2315207,26.8736295 50.7563134,26.3489396 L50.7563134,26.3489396 C51.8058986,26.3489396 52.5930876,25.2995598 52.5930876,24.2501801 C52.5930876,23.2008003 51.8058986,22.1514206 50.4939171,22.1514206 L50.4939171,22.1514206 C49.4443318,22.1514206 48.3947465,22.6761104 47.6075576,23.4631453 C46.8203687,24.2501801 47.082765,25.5619048 47.6075576,26.0865946 C48.1323502,26.8736295 48.6571429,27.1359744 49.1819355,27.1359744 L49.1819355,27.1359744 Z"></path>
                        <path d="M69.1240553,17.1668667 L69.1240553,17.1668667 C69.6488479,17.1668667 70.1736406,16.9045218 70.4360369,16.6421769 C70.6984332,16.3798319 70.9608295,16.3798319 71.4856221,16.3798319 C72.5352074,16.6421769 73.8471889,15.8551421 73.8471889,14.5434174 C73.8471889,13.4940376 73.3223963,12.7070028 72.2728111,12.4446579 C70.4360369,12.1823129 68.861659,12.4446579 67.5496774,13.7563826 C67.0248848,14.2810724 66.7624885,15.0681072 67.0248848,15.8551421 C67.5496774,16.6421769 68.3368664,17.1668667 69.1240553,17.1668667 L69.1240553,17.1668667 Z"></path>
                        <path d="M82.243871,66.4877151 C81.9814747,67.012405 82.243871,67.7994398 82.5062673,68.0617847 C82.7686636,68.5864746 83.5558525,68.8488195 84.0806452,68.8488195 L84.0806452,68.8488195 C84.8678341,68.8488195 85.655023,68.3241297 85.9174194,67.2747499 C85.9174194,67.012405 86.1798157,66.75006 86.9670046,66.75006 C88.0165899,66.75006 88.8037788,65.9630252 88.8037788,64.6513005 C88.8037788,63.6019208 88.0165899,62.814886 86.9670046,62.814886 L86.9670046,62.814886 C84.6054378,63.0772309 82.7686636,64.3889556 82.243871,66.4877151 L82.243871,66.4877151 Z"></path>
                        <path d="M95.8884793,63.0772309 C96.4132719,63.0772309 96.9380645,62.814886 97.4628571,62.2901961 C97.7252535,62.0278511 97.9876498,61.5031613 97.9876498,60.9784714 C97.9876498,59.9290916 97.2004608,58.8797119 96.1508756,58.8797119 C95.6260829,58.8797119 95.1012903,59.1420568 94.5764977,59.6667467 C94.3141014,59.9290916 94.0517051,60.4537815 94.0517051,60.9784714 C94.0517051,62.2901961 94.838894,63.0772309 95.8884793,63.0772309 L95.8884793,63.0772309 Z"></path>
                        <path d="M83.2934562,51.0093637 C84.3430415,51.0093637 85.3926267,50.2223289 85.3926267,48.9106042 L85.3926267,47.5988796 C85.3926267,46.5494998 84.6054378,45.50012 83.2934562,45.50012 C81.9814747,45.50012 81.1942857,46.2871549 81.1942857,47.5988796 L81.1942857,48.9106042 C81.1942857,50.2223289 82.243871,51.0093637 83.2934562,51.0093637 L83.2934562,51.0093637 Z"></path>
                        <path d="M96.4132719,45.2377751 L97.7252535,46.0248099 C97.9876498,46.2871549 98.2500461,46.2871549 98.7748387,46.2871549 C99.5620276,46.2871549 100.08682,46.0248099 100.611613,45.2377751 C100.874009,44.7130852 100.874009,44.1883954 100.874009,43.6637055 C100.611613,43.1390156 100.349217,42.6143257 99.824424,42.6143257 L98.5124424,41.8272909 C98.2500461,41.564946 97.9876498,41.564946 97.4628571,41.564946 C96.6756682,41.564946 96.1508756,41.8272909 95.6260829,42.6143257 C95.3636866,43.1390156 95.3636866,43.6637055 95.3636866,44.1883954 C95.6260829,44.7130852 95.8884793,44.9754302 96.4132719,45.2377751 L96.4132719,45.2377751 Z"></path>
                        <path d="M107.95871,64.6513005 L109.270691,64.6513005 C110.320276,64.6513005 111.369862,63.8642657 111.369862,62.552541 C111.369862,61.2408163 110.582673,60.4537815 109.270691,60.4537815 L107.95871,60.4537815 C106.909124,60.4537815 105.859539,61.2408163 105.859539,62.552541 C105.859539,63.8642657 106.909124,64.6513005 107.95871,64.6513005 L107.95871,64.6513005 Z"></path>
                        <path d="M72.2728111,52.0587435 C72.7976037,52.0587435 73.3223963,51.7963986 73.8471889,51.2717087 C74.1095853,51.0093637 74.3719816,50.4846739 74.3719816,49.959984 C74.3719816,48.9106042 73.5847926,47.8612245 72.5352074,47.8612245 C72.0104147,47.8612245 71.4856221,48.1235694 70.9608295,48.6482593 C70.6984332,48.9106042 70.4360369,49.4352941 70.4360369,49.959984 C70.4360369,51.2717087 71.2232258,52.0587435 72.2728111,52.0587435 L72.2728111,52.0587435 Z"></path>
                        <path d="M122.9153,37.105082 C123.964885,37.105082 125.01447,36.3180472 125.01447,35.0063225 L125.01447,34.2192877 C125.01447,33.169908 124.227281,32.1205282 122.9153,32.1205282 C121.865714,32.1205282 120.816129,32.907563 120.816129,34.2192877 L120.816129,35.0063225 C120.816129,36.0557023 121.865714,37.105082 122.9153,37.105082 L122.9153,37.105082 Z"></path>
                        <path d="M100.349217,32.1205282 L100.349217,32.907563 C100.349217,33.9569428 101.136406,35.0063225 102.448387,35.0063225 C103.760369,35.0063225 104.547558,34.2192877 104.547558,32.907563 L104.547558,32.1205282 C104.547558,31.0711485 103.760369,30.0217687 102.448387,30.0217687 C101.136406,30.0217687 100.349217,31.0711485 100.349217,32.1205282 L100.349217,32.1205282 Z"></path>
                        <path d="M99.5620276,22.9384554 C100.08682,22.9384554 100.611613,22.6761104 101.136406,22.1514206 C101.398802,21.8890756 101.661198,21.3643858 101.661198,20.8396959 C101.661198,19.7903161 100.874009,18.7409364 99.824424,18.7409364 C99.2996313,18.7409364 98.7748387,19.0032813 98.2500461,19.5279712 C97.9876498,19.7903161 97.7252535,20.315006 97.7252535,20.8396959 C97.4628571,21.8890756 98.2500461,22.9384554 99.5620276,22.9384554 L99.5620276,22.9384554 Z"></path>
                        <path d="M83.2934562,17.1668667 C83.8182488,17.1668667 84.3430415,16.9045218 84.8678341,16.3798319 C85.1302304,16.117487 85.3926267,15.5927971 85.3926267,15.0681072 C85.3926267,14.0187275 84.6054378,12.9693477 83.5558525,12.9693477 C83.0310599,12.9693477 82.5062673,13.2316927 81.9814747,13.7563826 C81.7190783,14.0187275 81.456682,14.5434174 81.456682,15.0681072 C81.1942857,16.3798319 81.9814747,17.1668667 83.2934562,17.1668667 L83.2934562,17.1668667 Z"></path>
                        <path d="M73.06,31.3334934 C72.2728111,32.1205282 72.2728111,33.4322529 73.06,34.2192877 C73.3223963,34.4816327 73.8471889,34.7439776 74.3719816,34.7439776 C74.8967742,34.7439776 75.4215668,34.4816327 75.6839631,34.2192877 L76.4711521,33.4322529 C76.7335484,33.169908 76.9959447,32.6452181 76.9959447,32.1205282 C76.9959447,31.5958383 76.7335484,31.0711485 76.4711521,30.8088035 C75.6839631,30.0217687 74.3719816,30.0217687 73.5847926,30.8088035 L73.06,31.3334934 L73.06,31.3334934 Z"></path>
                        <path d="M22.4175115,85.3765506 C21.8927189,85.3765506 21.3679263,85.6388956 20.8431336,86.1635854 C20.5807373,86.4259304 20.318341,86.9506202 20.318341,87.4753101 C20.318341,88.5246899 21.10553,89.5740696 22.1551152,89.5740696 C22.6799078,89.5740696 23.2047005,89.3117247 23.7294931,88.7870348 C23.9918894,88.5246899 24.2542857,88 24.2542857,87.4753101 C24.2542857,86.1635854 23.4670968,85.3765506 22.4175115,85.3765506 L22.4175115,85.3765506 Z"></path>
                        <path d="M36.8493088,84.5895158 C36.3245161,84.5895158 35.7997235,84.8518607 35.2749309,85.3765506 C35.0125346,85.6388956 34.7501382,86.1635854 34.7501382,86.6882753 C34.7501382,87.7376551 35.5373272,88.7870348 36.5869124,88.7870348 C37.1117051,88.7870348 37.6364977,88.5246899 38.1612903,88 C38.4236866,87.7376551 38.6860829,87.2129652 38.6860829,86.6882753 C38.9484793,85.3765506 37.898894,84.5895158 36.8493088,84.5895158 L36.8493088,84.5895158 Z"></path>
                        <path d="M29.502212,81.7037215 C28.9774194,81.7037215 28.4526267,81.9660664 27.9278341,82.4907563 C27.9278341,82.7531012 27.6654378,83.2777911 27.6654378,83.802481 C27.6654378,84.8518607 28.4526267,85.9012405 29.502212,85.9012405 C30.0270046,85.9012405 30.5517972,85.6388956 31.0765899,85.1142057 C31.3389862,84.8518607 31.6013825,84.3271709 31.6013825,83.802481 C31.6013825,82.4907563 30.8141935,81.7037215 29.502212,81.7037215 L29.502212,81.7037215 Z"></path>
                        <path d="M24.516682,64.1266106 C23.4670968,64.1266106 22.4175115,64.9136455 22.4175115,66.2253701 L22.4175115,67.012405 C22.4175115,68.0617847 23.2047005,69.1111645 24.516682,69.1111645 C25.8286636,69.1111645 26.6158525,68.3241297 26.6158525,67.012405 L26.6158525,66.2253701 C26.6158525,64.9136455 25.5662673,64.1266106 24.516682,64.1266106 L24.516682,64.1266106 Z"></path>
                        <path d="M51.281106,81.7037215 L49.9691244,81.7037215 C48.9195392,81.7037215 47.8699539,82.4907563 47.8699539,83.802481 C47.8699539,85.1142057 48.6571429,85.9012405 49.9691244,85.9012405 L51.281106,85.9012405 C52.3306912,85.9012405 53.3802765,85.1142057 53.3802765,83.802481 C53.3802765,82.4907563 52.5930876,81.7037215 51.281106,81.7037215 L51.281106,81.7037215 Z"></path>
                        <path d="M61.5145622,31.8581833 C60.2025806,32.1205282 58.8905991,33.169908 58.6282028,34.7439776 C58.3658065,35.7933573 58.8905991,36.8427371 59.9401843,37.105082 L60.464977,37.105082 L60.464977,37.105082 C61.2521659,37.105082 62.3017512,36.5803922 62.3017512,35.5310124 C62.8265438,35.5310124 63.0889401,35.0063225 63.3513364,34.7439776 C63.6137327,34.2192877 63.876129,33.6945978 63.6137327,33.169908 C63.6137327,32.3828731 62.5641475,31.8581833 61.5145622,31.8581833 L61.5145622,31.8581833 Z"></path>
                        <path d="M217.640369,130.762225 C216.590783,130.762225 215.541198,131.54926 215.541198,132.860984 L215.541198,133.648019 C215.541198,134.697399 216.328387,135.746779 217.640369,135.746779 C218.689954,135.746779 219.739539,134.959744 219.739539,133.648019 L219.739539,132.598639 C219.739539,131.54926 218.689954,130.762225 217.640369,130.762225 L217.640369,130.762225 Z"></path>
                        <path d="M245.191982,103.740696 C244.142396,103.740696 243.092811,104.527731 243.092811,105.839456 L243.092811,106.364146 C243.092811,107.413525 243.88,108.462905 245.191982,108.462905 C246.241567,108.462905 247.291152,107.67587 247.291152,106.364146 L247.291152,105.577111 C247.028756,104.527731 246.241567,103.740696 245.191982,103.740696 L245.191982,103.740696 Z"></path>
                        <path d="M231.284977,111.348699 C230.760184,111.348699 230.235392,111.611044 229.710599,112.135734 C229.448203,112.398079 229.185806,112.922769 229.185806,113.447459 C229.185806,114.496839 229.972995,115.546218 231.022581,115.546218 C231.547373,115.546218 232.072166,115.283874 232.596959,114.759184 C232.859355,114.496839 233.121751,113.972149 233.121751,113.447459 C233.121751,112.135734 232.334562,111.348699 231.284977,111.348699 L231.284977,111.348699 Z"></path>
                        <path d="M245.979171,93.5092437 C246.503963,93.5092437 247.028756,93.2468988 247.553548,92.7222089 C247.815945,92.4598639 248.078341,91.9351741 248.078341,91.4104842 C248.078341,90.3611044 247.291152,89.3117247 246.241567,89.3117247 C245.716774,89.3117247 245.191982,89.5740696 244.667189,90.0987595 C244.404793,90.3611044 244.142396,90.8857943 244.142396,91.4104842 C244.142396,92.7222089 244.929585,93.5092437 245.979171,93.5092437 L245.979171,93.5092437 Z"></path>
                        <path d="M218.165161,119.743737 C217.115576,119.743737 216.328387,120.530772 216.065991,121.580152 L216.065991,121.580152 C215.541198,121.842497 215.541198,122.367187 215.278802,122.891877 C215.278802,123.416567 215.541198,123.941257 215.803594,124.465946 C216.065991,124.728291 216.590783,124.990636 217.115576,124.990636 L217.115576,124.990636 C217.640369,124.990636 218.165161,124.728291 218.427558,124.465946 C219.214747,123.678912 219.739539,122.629532 219.739539,121.580152 C219.739539,121.055462 219.477143,120.530772 219.214747,120.268427 C218.95235,120.006082 218.689954,119.743737 218.165161,119.743737 L218.165161,119.743737 Z"></path>
                        <path d="M246.766359,82.2284114 C247.815945,82.2284114 248.86553,81.4413766 248.86553,80.1296519 L248.86553,79.342617 C248.86553,78.2932373 248.078341,77.2438575 246.766359,77.2438575 C245.716774,77.2438575 244.667189,78.0308924 244.667189,79.342617 L244.667189,80.1296519 C244.929585,81.4413766 245.716774,82.2284114 246.766359,82.2284114 L246.766359,82.2284114 Z"></path>
                    </g>
                </g>
            </g>
        </g>
    </g>
</svg>