<?xml version="1.0" encoding="UTF-8" standalone="no"?>
<svg width="43px" height="45px" viewBox="0 0 43 45" version="1.1" xmlns="http://www.w3.org/2000/svg" xmlns:xlink="http://www.w3.org/1999/xlink">
    <!-- Generator: Sketch 3.6.1 (26313) - http://www.bohemiancoding.com/sketch -->
    <title>noun_429208_cc</title>
    <desc>Created with Sketch.</desc>
    <defs></defs>
    <g id="Page-1" stroke="none" stroke-width="1" fill="none" fill-rule="evenodd">
        <g id="Sticky-Footer" transform="translate(-32.000000, -33.000000)" fill="#FFFFFF">
            <g id="noun_429208_cc" transform="translate(32.000000, 33.000000)">
                <g id="Group">
                    <path d="M37.4107238,32.0275 L36.7336831,29.915 C36.6074215,29.519 36.2057703,29.0445 35.8384186,28.8555 L33.5637209,27.6825 C32.6440988,27.209 31.517189,27.574 31.0464419,28.499 L24.6195262,41.1125 C24.1487791,42.038 24.511657,43.171 25.4312791,43.644 L27.7059767,44.8175 C28.0738256,45.007 28.6897238,45.057 29.0834215,44.93 L31.1846337,44.249 C31.5778343,44.1215 32.0495756,43.718 32.2369797,43.349 L37.2983808,33.4145 C37.4872762,33.0435 37.5374826,32.424 37.4107238,32.0275 L37.4107238,32.0275 Z" id="Shape"></path>
                    <path d="M11.7045523,28.499 C11.2338052,27.574 10.1063983,27.209 9.18677616,27.6825 L6.91207849,28.8555 C6.54422965,29.0445 6.14307558,29.519 6.01681395,29.915 L5.33977326,32.0275 C5.21301453,32.424 5.26322093,33.0435 5.45211628,33.4135 L10.5125233,43.3475 C10.7004244,43.7175 11.1726628,44.1205 11.5658634,44.248 L13.6665785,44.9295 C14.0602762,45.057 14.6766715,45.0065 15.0445203,44.8165 L17.3197151,43.643 C18.2388401,43.17 18.6022151,42.036 18.1309709,41.1115 L11.7045523,28.499 L11.7045523,28.499 Z" id="Shape"></path>
                    <path d="M42.5437064,22.587 C42.5397297,19.0775 41.6887064,15.6715 40.0686802,12.614 C40.5518547,11.8215 40.5637849,10.787 40.0130058,9.9665 C35.8220145,3.7255 28.8537645,0 21.375,0 C13.8445378,0 6.85043895,3.766 2.66541279,10.0745 C2.11910756,10.8975 2.13700291,11.932 2.62465116,12.722 C1.04140988,15.7525 0.210270349,19.1215 0.206790698,22.5865 C0.00795348837,27.7865 1.81538372,33.9445 5.43571221,40.395 C5.73993314,40.938 6.42492733,41.1305 6.96427326,40.823 C7.50411628,40.5165 7.69450291,39.828 7.38978488,39.285 C3.96978488,33.1905 2.26177326,27.4395 2.45017151,22.653 L2.4506686,22.608 C2.4506686,19.5405 3.17493314,16.556 4.55884012,13.868 C4.60109302,13.8705 4.64284884,13.8775 4.68559884,13.8775 C5.47100581,13.8775 6.2415,13.495 6.71025872,12.7885 C9.99107267,7.843 15.4730145,4.8905 21.3745029,4.8905 C27.2357267,4.8905 32.6962936,7.8115 35.9830727,12.704 C36.4811599,13.446 37.3132936,13.823 38.1414506,13.7745 C39.5581657,16.487 40.2988343,19.503 40.2988343,22.6085 L40.2998285,22.6535 C40.4892209,27.4395 38.7802151,33.1905 35.3602151,39.286 C35.0559942,39.8285 35.2463808,40.517 35.7852297,40.823 C35.9597093,40.9225 36.1486047,40.9695 36.3350145,40.9695 C36.7267238,40.9695 37.1079942,40.7625 37.3137907,40.3955 C40.9346163,33.9455 42.7420465,27.787 42.5437064,22.587 L42.5437064,22.587 Z" id="Shape"></path>
                </g>
            </g>
        </g>
    </g>
</svg>