<?xml version="1.0" encoding="UTF-8" standalone="no"?>
<svg width="230px" height="205px" viewBox="0 0 230 205" version="1.1" xmlns="http://www.w3.org/2000/svg" xmlns:xlink="http://www.w3.org/1999/xlink">
    <!-- Generator: Sketch 3.6.1 (26313) - http://www.bohemiancoding.com/sketch -->
    <title>noun_36924_cc</title>
    <desc>Created with Sketch.</desc>
    <defs></defs>
    <g id="Page-1" stroke="none" stroke-width="1" fill="none" fill-rule="evenodd">
        <g id="Sidebar" transform="translate(-40.000000, -60.000000)">
            <g id="noun_36924_cc" transform="translate(40.000000, 60.000000)">
                <g id="Group" transform="translate(21.000000, 22.000000)" fill="#2C3B48">
                    <ellipse id="Oval" cx="90.2263516" cy="93.3301375" rx="2.41391209" ry="2.4062875"></ellipse>
                    <ellipse id="Oval" cx="60.45" cy="58.5928" rx="2.22995604" ry="2.2229125"></ellipse>
                    <ellipse id="Oval" cx="69.8378901" cy="19.3424" rx="2.232" ry="2.22495"></ellipse>
                    <ellipse id="Oval" cx="103.898374" cy="68.91885" rx="2.22995604" ry="2.2229125"></ellipse>
                    <ellipse id="Oval" cx="113.286264" cy="29.6704875" rx="2.22995604" ry="2.2229125"></ellipse>
                    <path d="M18.9209011,11.7690125 C15.4257363,12.321175 12.2351209,14.277175 10.1625495,17.1357875 C9.66586813,17.8203875 9.81916484,18.775975 10.5059341,19.26905 C10.7777802,19.4666875 11.0905055,19.5604125 11.4011868,19.5604125 C11.8753846,19.5604125 12.3454945,19.3424 12.6439121,18.92675 C14.2422857,16.7242125 16.7052527,15.214425 19.4032747,14.78655 C20.2392527,14.65615 20.8095165,13.8717125 20.6746154,13.038375 C20.5397143,12.2050375 19.7568791,11.6263875 18.9209011,11.7690125 L18.9209011,11.7690125 Z" id="Shape"></path>
                    <path d="M183.647407,43.7781375 L176.859429,42.2011125 C176.332088,42.0788625 175.778176,42.17055 175.314198,42.4537625 C174.854308,42.74105 174.525231,43.1954125 174.404637,43.723125 L173.497121,47.610675 L148.591516,41.82825 L149.443846,38.2646625 C149.705473,37.170525 149.028923,36.0723125 147.931319,35.8115125 L122.312374,29.721425 L122.815187,27.6166875 C123.606198,24.3159375 121.554066,20.9887 118.240813,20.2001875 L113.153407,18.9899125 C112.683297,18.87785 112.198879,18.8208 111.718549,18.8208 C108.850879,18.8208 106.383824,20.764575 105.715451,23.5478 L105.210593,25.654575 L78.861956,19.3933375 L79.3668132,17.2865625 C80.1557802,13.98785 78.1056923,10.6606125 74.7924396,9.8700625 L69.705033,8.661825 C69.2349231,8.5497625 68.7505055,8.4927125 68.2701758,8.4927125 C65.4025055,8.4927125 62.9334066,10.4364875 62.2670769,13.2197125 L61.7622198,15.3264875 L44.0125055,11.1088625 L45.1305495,6.436875 C45.2572747,5.9091625 45.1693846,5.357 44.8832308,4.896525 C44.5991209,4.4340125 44.1453626,4.105975 43.618022,3.9816875 L27.6629011,0.1899 C27.1294286,0.0615375 26.5775604,0.153225 26.1176703,0.4364375 C25.6536923,0.71965 25.3246154,1.171975 25.1999341,1.69765 L24.5315604,4.4931 C14.0215385,3.0444375 3.89169231,9.7967125 1.37967033,20.2939125 C-1.13235165,30.7911125 4.85643956,41.3616625 14.8881758,44.803 L14.2198022,47.6004875 C13.9581758,48.6966625 14.6347253,49.794875 15.7323297,50.055675 L31.6854066,53.8474625 C31.8448352,53.886175 32.0042637,53.902475 32.1616484,53.902475 C33.0855165,53.902475 33.9235385,53.2728875 34.1483736,52.337675 L35.617978,46.19665 L53.3697363,50.414275 L51.1438681,59.713425 C50.3569451,63.014175 52.4090769,66.339375 55.7182418,67.12585 L60.8056484,68.336125 L60.8076923,68.336125 L75.4771648,71.824325 L75.4771648,88.07135 L65.191978,88.07135 C64.0616703,88.07135 63.148022,88.9821125 63.148022,90.10885 L63.148022,96.543275 C63.148022,97.6700125 64.0616703,98.580775 65.191978,98.580775 L73.0448571,98.580775 L55.0028571,158.664613 C54.8168571,159.281975 54.9354066,159.950275 55.3217143,160.4678 C55.705978,160.983288 56.313033,161.286875 56.960967,161.286875 L63.1909451,161.286875 C64.0923297,161.286875 64.8894725,160.696 65.1490549,159.834138 L73.3882418,132.395125 L84.2252967,132.395125 L84.2252967,159.697625 C84.2252967,160.824363 85.1389451,161.735125 86.2692527,161.735125 L92.8037802,161.735125 C93.9340879,161.735125 94.8477363,160.824363 94.8477363,159.697625 L94.8477363,132.395125 L105.682747,132.395125 L113.921934,159.834138 C114.181516,160.696 114.978659,161.286875 115.880044,161.286875 L122.110022,161.286875 C122.755912,161.286875 123.362967,160.983288 123.749275,160.4678 C124.135582,159.950275 124.254132,159.281975 124.068132,158.664613 L106.028176,98.58485 L106.737429,98.58485 C107.867736,98.58485 108.781385,97.6740875 108.781385,96.54735 L108.781385,95.3676375 L111.252527,95.3676375 C112.382835,95.3676375 113.296484,94.456875 113.296484,93.3301375 C113.296484,92.2034 112.382835,91.2926375 111.252527,91.2926375 L108.781385,91.2926375 L108.781385,90.112925 C108.781385,88.9861875 107.867736,88.075425 106.737429,88.075425 L98.9131648,88.075425 C97.1410549,85.1638375 94.0015385,83.2893375 90.4981978,83.19765 L90.4981978,75.3981 L99.1625275,77.46005 L99.1666154,77.46005 L104.254022,78.670325 C104.724132,78.7823875 105.208549,78.8394375 105.688879,78.8394375 C108.556549,78.8394375 111.025648,76.8956625 111.691978,74.1124375 L113.915802,64.815325 L139.538835,70.903375 C139.69622,70.9420875 139.855648,70.9583875 140.013033,70.9583875 C140.936901,70.9583875 141.774923,70.3288 141.999758,69.39155 L142.895011,65.64255 L167.921209,71.4535 L167.117934,74.8907625 C166.993253,75.4164375 167.085231,75.9686 167.373429,76.429075 C167.659582,76.88955 168.115385,77.21555 168.644769,77.3357625 L175.432747,78.91075 C175.588088,78.9494625 175.743429,78.963725 175.898769,78.963725 C176.826725,78.963725 177.666791,78.328025 177.887538,77.3887375 L185.170154,46.2211 C185.429736,45.129 184.745011,44.032825 183.647407,43.7781375 L183.647407,43.7781375 Z M5.35516484,21.2393125 C7.34393407,12.9303875 15.2642637,7.561575 23.574989,8.4927125 L15.8447473,40.805425 C8.00413187,37.904025 3.36843956,29.5462 5.35516484,21.2393125 L5.35516484,21.2393125 Z M30.645033,49.411825 L18.6715385,46.5654375 L28.7032747,4.627575 L40.6788132,7.4739625 L30.645033,49.411825 L30.645033,49.411825 Z M104.262198,29.6175125 L97.7624176,56.7855375 L71.4137802,50.5243 L77.9135604,23.356275 L104.262198,29.6175125 L104.262198,29.6175125 Z M67.4076264,65.719975 C67.7857582,65.141325 68.0719121,64.489325 68.2415604,63.78435 L68.5236264,62.606675 L94.8722637,68.8679125 L94.5901978,70.0455875 C94.4225934,70.748525 94.4001099,71.457575 94.4777802,72.1544 L67.4076264,65.719975 L67.4076264,65.719975 Z M95.8206593,64.9070125 L69.472022,58.645775 L70.4653846,54.4872375 L96.814022,60.748475 L95.8206593,64.9070125 L95.8206593,64.9070125 Z M36.5684176,42.2377875 L43.0661538,15.0738375 L60.8179121,19.2914625 L54.3181319,46.45745 L36.5684176,42.2377875 L36.5684176,42.2377875 Z M56.6666374,63.1669875 C55.5485934,62.900075 54.8536484,61.7774125 55.1193626,60.6629 L66.2425714,14.1651125 C66.4674066,13.2237875 67.3013407,12.5677125 68.2681319,12.5677125 C68.4296044,12.5677125 68.5951648,12.5880875 68.7566374,12.6247625 L73.842,13.833 C74.9620879,14.0999125 75.657033,15.22665 75.3892747,16.339125 L64.2660659,62.834875 C64.0003516,63.935125 62.8577802,64.6299125 61.7560879,64.375225 L56.6666374,63.1669875 L56.6666374,63.1669875 L56.6666374,63.1669875 L56.6666374,63.1669875 Z M67.2359341,92.150425 L80.1619121,92.150425 C80.1169451,92.541625 80.0413187,92.9267125 80.0413187,93.3301375 C80.0413187,93.7335625 80.1149011,94.11865 80.1619121,94.50985 L67.2359341,94.50985 L67.2359341,92.150425 L67.2359341,92.150425 Z M61.6702418,157.211875 L59.706,157.211875 L77.3105934,98.58485 L79.2727912,98.58485 L61.6702418,157.211875 L61.6702418,157.211875 Z M74.6125714,128.322162 L82.9825714,100.449163 C83.3647912,100.83425 83.7899341,101.170438 84.2252967,101.492363 L84.2252967,128.322162 L74.6125714,128.322162 L74.6125714,128.322162 Z M90.7598242,157.662163 L88.3132088,157.662163 L88.3132088,103.291475 C88.9345714,103.411688 89.5722857,103.485038 90.2283956,103.485038 C90.4103077,103.485038 90.582,103.44225 90.7618681,103.432063 L90.7618681,157.662163 L90.7598242,157.662163 Z M94.8477363,128.322163 L94.8477363,102.327738 C95.3852967,102.052675 95.8921978,101.7389 96.3684396,101.376225 L104.458418,128.322163 L94.8477363,128.322163 L94.8477363,128.322163 Z M119.364989,157.211875 L117.400747,157.211875 L99.7981978,98.58485 L101.760396,98.58485 L119.364989,157.211875 L119.364989,157.211875 Z M104.693473,94.50985 L100.294879,94.50985 C100.339846,94.11865 100.415473,93.7335625 100.415473,93.3301375 C100.415473,92.932825 100.366418,92.541625 100.319407,92.150425 L104.695516,92.150425 L104.695516,94.50985 L104.693473,94.50985 Z M96.0025714,91.368025 C96.2171868,91.9976125 96.3255165,92.6577625 96.3255165,93.3301375 C96.3255165,94.3876 96.0291429,95.3676375 95.5508571,96.233575 C95.509978,96.298775 95.4752308,96.3619375 95.4425275,96.4352875 C94.3776264,98.2079125 92.4481319,99.4100375 90.2263516,99.4100375 C86.862,99.4100375 84.1292308,96.6838625 84.1292308,93.332175 C84.1292308,89.9804875 86.864044,87.2543125 90.2263516,87.2543125 C92.8405714,87.2502375 95.1625055,88.906725 96.0025714,91.368025 L96.0025714,91.368025 Z M86.4389011,83.923 C84.3622418,84.7563375 82.6494066,86.257975 81.512967,88.15285 C81.3841978,88.1263625 81.2636044,88.075425 81.1266593,88.075425 L79.5650769,88.075425 L79.5650769,72.8002875 L80.6401978,73.0570125 L80.6401978,78.7497875 C80.6401978,79.5933125 81.326967,80.2779125 82.1731648,80.2779125 C83.0193626,80.2779125 83.7061319,79.5933125 83.7061319,78.7497875 L83.7061319,73.7844 L86.4082418,74.4262125 L86.4082418,83.7763 C86.4082418,83.829275 86.4348132,83.870025 86.4389011,83.923 L86.4389011,83.923 Z M107.71444,73.165 C107.450769,74.2632125 106.320462,74.9722625 105.202418,74.70535 L102.810989,74.1368875 L102.810989,74.1368875 L100.108879,73.495075 C99.5692747,73.3667125 99.1114286,73.0325625 98.8191429,72.5619 C98.5248132,72.0912375 98.4348791,71.5329625 98.5656923,70.993025 L109.688901,24.4952375 C109.913736,23.5539125 110.74767,22.8958 111.714462,22.8958 C111.875934,22.8958 112.039451,22.916175 112.200923,22.95285 L117.28833,24.163125 C118.408418,24.4300375 119.103363,25.5547375 118.835604,26.66925 L107.71444,73.165 L107.71444,73.165 Z M138.496418,66.4657 L114.862154,60.85035 L121.363978,33.682325 L144.994154,39.30175 L138.496418,66.4657 L138.496418,66.4657 Z M143.843407,61.68165 L147.643121,45.7911875 L172.565077,51.5776875 L168.849165,67.488525 L143.843407,61.68165 L143.843407,61.68165 Z M174.371934,74.481225 L171.565582,73.8312625 L177.920242,46.6306375 L180.726593,47.2826375 L174.371934,74.481225 L174.371934,74.481225 Z" id="Shape"></path>
                </g>
                <rect id="Rectangle-13" fill-opacity="0" fill="#FFFFFF" x="0" y="0" width="230" height="205"></rect>
            </g>
        </g>
    </g>
</svg>